<?xml version="1.0" encoding="UTF-8" standalone="no"?>
<svg
   version="1.1"
   id="Layer_1"
   x="0px"
   y="0px"
   viewBox="0 0 517.24413 517.24413"
   enable-background="new 0 0 180 180"
   xml:space="preserve"
   sodipodi:docname="learn.svg"
   width="5.38796in"
   height="5.38796in"
   inkscape:version="1.1.1 (c3084ef, 2021-09-22)"
   xmlns:inkscape="http://www.inkscape.org/namespaces/inkscape"
   xmlns:sodipodi="http://sodipodi.sourceforge.net/DTD/sodipodi-0.dtd"
   xmlns="http://www.w3.org/2000/svg"
   xmlns:svg="http://www.w3.org/2000/svg"><defs
   id="defs971" /><sodipodi:namedview
   id="namedview969"
   pagecolor="#ffffff"
   bordercolor="#666666"
   borderopacity="1.0"
   inkscape:pageshadow="2"
   inkscape:pageopacity="0.0"
   inkscape:pagecheckerboard="0"
   showgrid="false"
   width="179px"
   fit-margin-top="0"
   fit-margin-left="0"
   fit-margin-right="0"
   fit-margin-bottom="0"
   inkscape:zoom="1.4888889"
   inkscape:cx="60.11194"
   inkscape:cy="279.06716"
   inkscape:window-width="2560"
   inkscape:window-height="999"
   inkscape:window-x="0"
   inkscape:window-y="25"
   inkscape:window-maximized="1"
   inkscape:current-layer="Layer_1"
   units="in"
   inkscape:document-units="in" />
<g
   id="g966"
   transform="matrix(3.9709077,0,0,3.9709077,-98.758772,-98.758772)">
	<g
   id="XMLID_340_">
		<path
   fill="#f2f2f2"
   d="m 154.622,89.999 c 0,35.69 -28.932,64.623 -64.621,64.623 -35.691,0 -64.623,-28.933 -64.623,-64.623 0,-35.689 28.932,-64.621 64.623,-64.621 35.689,0 64.621,28.932 64.621,64.621 z"
   id="path706" />
	</g>
	<g
   id="g725">
		<g
   id="g711">
			<path
   fill="#f2f2f2"
   d="M 69.481,111.17 H 49.385 c -1.555,0 -2.827,-1.272 -2.827,-2.825 v -0.727 c 0,-1.555 1.272,-2.827 2.827,-2.827 h 20.097 c 1.555,0 2.827,1.272 2.827,2.827 v 0.727 c 0,1.552 -1.273,2.825 -2.828,2.825 z"
   id="path709" />
		</g>
		<g
   id="g715">
			<path
   fill="#f2f2f2"
   d="M 73.878,123.574 H 48.6 c -1.555,0 -2.825,-1.272 -2.825,-2.827 v -0.726 c 0,-1.555 1.271,-2.826 2.825,-2.826 h 25.278 c 1.555,0 2.826,1.271 2.826,2.826 v 0.726 c 0,1.555 -1.271,2.827 -2.826,2.827 z"
   id="path713" />
		</g>
		<g
   id="g719">
			<path
   fill="#f2f2f2"
   d="m 91.258,123.574 h -9.334 c -1.554,0 -2.825,-1.272 -2.825,-2.827 v -0.726 c 0,-1.555 1.271,-2.826 2.825,-2.826 h 9.334 c 1.555,0 2.825,1.271 2.825,2.826 v 0.726 c 0,1.555 -1.271,2.827 -2.825,2.827 z"
   id="path717" />
		</g>
		<g
   id="g723">
			<path
   fill="#f2f2f2"
   d="m 62.844,114.467 v -0.726 c 0,-1.555 1.271,-2.826 2.826,-2.826 h -8.512 c 1.554,0 2.825,1.271 2.825,2.826 v 0.726 c 0,1.555 -1.271,2.826 -2.825,2.826 h 8.512 c -1.555,0 -2.826,-1.272 -2.826,-2.826 z"
   id="path721" />
		</g>
	</g>
	<g
   id="g743">
		<g
   id="g729">
			<path
   fill="#f2f2f2"
   d="M 71.113,76.628 H 54.729 c -1.268,0 -2.305,-1.038 -2.305,-2.305 v -0.592 c 0,-1.268 1.037,-2.304 2.305,-2.304 h 16.384 c 1.267,0 2.303,1.036 2.303,2.304 v 0.592 c 0,1.267 -1.036,2.305 -2.303,2.305 z"
   id="path727" />
		</g>
		<g
   id="g733">
			<path
   fill="#f2f2f2"
   d="M 74.697,86.739 H 54.088 c -1.268,0 -2.304,-1.036 -2.304,-2.304 v -0.593 c 0,-1.267 1.036,-2.304 2.304,-2.304 h 20.609 c 1.267,0 2.303,1.037 2.303,2.304 v 0.593 c 0,1.268 -1.036,2.304 -2.303,2.304 z"
   id="path731" />
		</g>
		<g
   id="g737">
			<path
   fill="#f2f2f2"
   d="m 88.865,86.739 h -7.608 c -1.268,0 -2.305,-1.036 -2.305,-2.304 v -0.593 c 0,-1.267 1.037,-2.304 2.305,-2.304 h 7.608 c 1.267,0 2.304,1.037 2.304,2.304 v 0.593 c 0,1.268 -1.037,2.304 -2.304,2.304 z"
   id="path735" />
		</g>
		<g
   id="g741">
			<path
   fill="#f2f2f2"
   d="m 65.7,79.315 v -0.592 c 0,-1.268 1.037,-2.304 2.304,-2.304 h -6.938 c 1.267,0 2.304,1.036 2.304,2.304 v 0.592 c 0,1.267 -1.037,2.304 -2.304,2.304 h 6.938 c -1.267,0 -2.304,-1.037 -2.304,-2.304 z"
   id="path739" />
		</g>
	</g>
	<g
   id="g761">
		<g
   id="g747">
			<path
   fill="#f2f2f2"
   d="M 117.585,121.151 H 98.786 c -1.454,0 -2.644,-1.189 -2.644,-2.644 v -0.679 c 0,-1.455 1.189,-2.644 2.644,-2.644 h 18.799 c 1.454,0 2.643,1.188 2.643,2.644 v 0.679 c 0,1.455 -1.189,2.644 -2.643,2.644 z"
   id="path745" />
		</g>
		<g
   id="g751">
			<path
   fill="#f2f2f2"
   d="M 116.098,132.754 H 92.451 c -1.454,0 -2.644,-1.189 -2.644,-2.644 v -0.679 c 0,-1.455 1.189,-2.643 2.644,-2.643 h 23.646 c 1.454,0 2.644,1.188 2.644,2.643 v 0.679 c 0,1.454 -1.189,2.644 -2.643,2.644 z"
   id="path749" />
		</g>
		<g
   id="g755">
			<path
   fill="#f2f2f2"
   d="m 132.354,132.754 h -8.73 c -1.454,0 -2.644,-1.189 -2.644,-2.644 v -0.679 c 0,-1.455 1.19,-2.643 2.644,-2.643 h 8.73 c 1.455,0 2.644,1.188 2.644,2.643 v 0.679 c 0,1.454 -1.188,2.644 -2.644,2.644 z"
   id="path753" />
		</g>
		<g
   id="g759">
			<path
   fill="#f2f2f2"
   d="m 113.744,124.331 v -0.679 c 0,-1.455 1.189,-2.644 2.644,-2.644 h -13.051 c 1.455,0 2.644,1.189 2.644,2.644 v 0.679 c 0,1.454 -1.188,2.645 -2.644,2.645 h 13.051 c -1.454,0 -2.644,-1.191 -2.644,-2.645 z"
   id="path757" />
		</g>
	</g>
	<g
   id="g779">
		<g
   id="g765">
			<path
   fill="#f2f2f2"
   d="m 121.744,87.544 h -16.385 c -1.267,0 -2.304,-1.037 -2.304,-2.305 v -0.591 c 0,-1.268 1.037,-2.305 2.304,-2.305 h 16.385 c 1.267,0 2.304,1.037 2.304,2.305 v 0.591 c 0,1.268 -1.037,2.305 -2.304,2.305 z"
   id="path763" />
		</g>
		<g
   id="g769">
			<path
   fill="#f2f2f2"
   d="m 125.327,97.655 h -20.606 c -1.268,0 -2.305,-1.036 -2.305,-2.304 V 94.76 c 0,-1.268 1.037,-2.304 2.305,-2.304 h 20.606 c 1.268,0 2.305,1.036 2.305,2.304 v 0.592 c 0,1.267 -1.037,2.303 -2.305,2.303 z"
   id="path767" />
		</g>
		<g
   id="g773">
			<path
   fill="#f2f2f2"
   d="m 139.497,97.655 h -7.609 c -1.266,0 -2.304,-1.036 -2.304,-2.304 V 94.76 c 0,-1.268 1.038,-2.304 2.304,-2.304 h 7.609 c 1.268,0 2.304,1.036 2.304,2.304 v 0.592 c 0,1.267 -1.036,2.303 -2.304,2.303 z"
   id="path771" />
		</g>
		<g
   id="g777">
			<path
   fill="#f2f2f2"
   d="M 116.332,90.231 V 89.64 c 0,-1.268 1.037,-2.305 2.305,-2.305 h -6.939 c 1.268,0 2.305,1.037 2.305,2.305 v 0.591 c 0,1.268 -1.037,2.304 -2.305,2.304 h 6.939 c -1.268,0 -2.305,-1.036 -2.305,-2.304 z"
   id="path775" />
		</g>
	</g>
	<g
   id="g797">
		<g
   id="g783">
			<path
   fill="#333333"
   d="m 51.105,63.518 h -8.464 c -0.213,0 -0.384,-0.172 -0.384,-0.384 0,-0.212 0.171,-0.385 0.384,-0.385 h 8.464 c 0.212,0 0.384,0.173 0.384,0.385 0,0.212 -0.172,0.384 -0.384,0.384 z"
   id="path781" />
		</g>
		<g
   id="g787">
			<path
   fill="#333333"
   d="m 50.381,67.87 h -1.367 c -0.212,0 -0.384,-0.171 -0.384,-0.384 0,-0.212 0.172,-0.384 0.384,-0.384 h 1.367 c 0.212,0 0.385,0.172 0.385,0.384 0,0.213 -0.173,0.384 -0.385,0.384 z"
   id="path785" />
		</g>
		<g
   id="g791">
			<path
   fill="#333333"
   d="m 46.499,67.87 h -5.154 c -0.212,0 -0.385,-0.171 -0.385,-0.384 0,-0.212 0.173,-0.384 0.385,-0.384 h 5.154 c 0.213,0 0.384,0.172 0.384,0.384 0,0.213 -0.171,0.384 -0.384,0.384 z"
   id="path789" />
		</g>
		<g
   id="g795">
			<path
   fill="#333333"
   d="m 52.81,70.734 h -6.223 c -0.213,0 -0.385,-0.171 -0.385,-0.384 0,-0.211 0.172,-0.384 0.385,-0.384 h 6.223 c 0.211,0 0.383,0.173 0.383,0.384 -10e-4,0.213 -0.173,0.384 -0.383,0.384 z"
   id="path793" />
		</g>
	</g>
	<g
   id="g815">
		<g
   id="g801">
			<path
   fill="#333333"
   d="m 51.557,94.354 h -8.961 c -0.212,0 -0.384,-0.171 -0.384,-0.383 0,-0.213 0.172,-0.385 0.384,-0.385 h 8.961 c 0.213,0 0.385,0.172 0.385,0.385 -10e-4,0.213 -0.172,0.383 -0.385,0.383 z"
   id="path799" />
		</g>
		<g
   id="g805">
			<path
   fill="#333333"
   d="m 50.79,98.964 h -1.448 c -0.212,0 -0.384,-0.172 -0.384,-0.384 0,-0.213 0.172,-0.384 0.384,-0.384 h 1.448 c 0.212,0 0.384,0.171 0.384,0.384 0,0.212 -0.172,0.384 -0.384,0.384 z"
   id="path803" />
		</g>
		<g
   id="g809">
			<path
   fill="#333333"
   d="m 46.68,98.964 h -5.457 c -0.211,0 -0.384,-0.172 -0.384,-0.384 0,-0.213 0.173,-0.384 0.384,-0.384 h 5.457 c 0.212,0 0.385,0.171 0.385,0.384 -10e-4,0.212 -0.173,0.384 -0.385,0.384 z"
   id="path807" />
		</g>
		<g
   id="g813">
			<path
   fill="#333333"
   d="m 53.36,101.996 h -6.588 c -0.212,0 -0.384,-0.172 -0.384,-0.384 0,-0.212 0.172,-0.385 0.384,-0.385 h 6.588 c 0.212,0 0.384,0.173 0.384,0.385 0,0.212 -0.172,0.384 -0.384,0.384 z"
   id="path811" />
		</g>
	</g>
	<g
   id="g833">
		<g
   id="g819">
			<path
   fill="#333333"
   d="m 69.928,136.418 h -8.961 c -0.212,0 -0.384,-0.173 -0.384,-0.385 0,-0.212 0.172,-0.384 0.384,-0.384 h 8.961 c 0.213,0 0.385,0.172 0.385,0.384 0,0.212 -0.172,0.385 -0.385,0.385 z"
   id="path817" />
		</g>
		<g
   id="g823">
			<path
   fill="#333333"
   d="m 63.182,131.809 h -1.446 c -0.212,0 -0.384,-0.172 -0.384,-0.384 0,-0.212 0.172,-0.385 0.384,-0.385 h 1.446 c 0.213,0 0.385,0.173 0.385,0.385 0,0.212 -0.172,0.384 -0.385,0.384 z"
   id="path821" />
		</g>
		<g
   id="g827">
			<path
   fill="#333333"
   d="m 71.302,131.809 h -5.457 c -0.212,0 -0.383,-0.172 -0.383,-0.384 0,-0.212 0.171,-0.385 0.383,-0.385 h 5.457 c 0.212,0 0.384,0.173 0.384,0.385 0,0.212 -0.172,0.384 -0.384,0.384 z"
   id="path825" />
		</g>
		<g
   id="g831">
			<path
   fill="#333333"
   d="m 65.752,128.776 h -6.587 c -0.213,0 -0.384,-0.172 -0.384,-0.384 0,-0.213 0.171,-0.384 0.384,-0.384 h 6.587 c 0.212,0 0.385,0.171 0.385,0.384 0,0.213 -0.173,0.384 -0.385,0.384 z"
   id="path829" />
		</g>
	</g>
	<g
   id="g851">
		<g
   id="g837">
			<rect
   x="122.386"
   y="119.5"
   fill="#333333"
   width="11.021"
   height="0.76800001"
   id="rect835" />
		</g>
		<g
   id="g841">
			<path
   fill="#333333"
   d="m 125.109,114.6 h -1.779 c -0.212,0 -0.385,-0.172 -0.385,-0.385 0,-0.211 0.173,-0.384 0.385,-0.384 h 1.779 c 0.212,0 0.383,0.173 0.383,0.384 0,0.213 -0.171,0.385 -0.383,0.385 z"
   id="path839" />
		</g>
		<g
   id="g845">
			<path
   fill="#333333"
   d="m 135.096,114.6 h -6.711 c -0.212,0 -0.385,-0.172 -0.385,-0.385 0,-0.211 0.173,-0.384 0.385,-0.384 h 6.711 c 0.213,0 0.384,0.173 0.384,0.384 -10e-4,0.213 -0.171,0.385 -0.384,0.385 z"
   id="path843" />
		</g>
		<g
   id="g849">
			<path
   fill="#333333"
   d="m 128.27,110.869 h -8.101 c -0.212,0 -0.385,-0.172 -0.385,-0.384 0,-0.213 0.173,-0.384 0.385,-0.384 h 8.101 c 0.212,0 0.384,0.171 0.384,0.384 0,0.212 -0.172,0.384 -0.384,0.384 z"
   id="path847" />
		</g>
	</g>
	<g
   id="g861">
		<g
   id="g855">
			<path
   fill="#333333"
   d="m 36.677,91.777 h -3.428 c -0.212,0 -0.384,-0.172 -0.384,-0.384 0,-0.212 0.172,-0.385 0.384,-0.385 h 3.428 c 0.211,0 0.383,0.173 0.383,0.385 0,0.212 -0.172,0.384 -0.383,0.384 z"
   id="path853" />
		</g>
		<g
   id="g859">
			<path
   fill="#333333"
   d="m 34.888,93.64 c -0.211,0 -0.383,-0.173 -0.383,-0.385 v -3.872 c 0,-0.213 0.172,-0.384 0.383,-0.384 0.213,0 0.385,0.171 0.385,0.384 v 3.872 c -0.001,0.212 -0.172,0.385 -0.385,0.385 z"
   id="path857" />
		</g>
	</g>
	<g
   id="g871">
		<g
   id="g865">
			<path
   fill="#333333"
   d="m 129.346,104.58 h -3.427 c -0.213,0 -0.384,-0.172 -0.384,-0.383 0,-0.212 0.171,-0.385 0.384,-0.385 h 3.427 c 0.212,0 0.384,0.173 0.384,0.385 -10e-4,0.211 -0.172,0.383 -0.384,0.383 z"
   id="path863" />
		</g>
		<g
   id="g869">
			<path
   fill="#333333"
   d="m 127.558,106.443 c -0.213,0 -0.384,-0.172 -0.384,-0.385 v -3.873 c 0,-0.212 0.171,-0.384 0.384,-0.384 0.212,0 0.384,0.172 0.384,0.384 v 3.873 c -10e-4,0.213 -0.172,0.385 -0.384,0.385 z"
   id="path867" />
		</g>
	</g>
	<g
   id="g881">
		<g
   id="g875">
			<path
   fill="#333333"
   d="M 56.234,133.212 H 52.81 c -0.213,0 -0.385,-0.172 -0.385,-0.384 0,-0.213 0.172,-0.385 0.385,-0.385 h 3.425 c 0.212,0 0.385,0.172 0.385,0.385 -10e-4,0.212 -0.174,0.384 -0.386,0.384 z"
   id="path873" />
		</g>
		<g
   id="g879">
			<path
   fill="#333333"
   d="m 54.448,135.074 c -0.213,0 -0.385,-0.172 -0.385,-0.385 v -3.872 c 0,-0.212 0.172,-0.385 0.385,-0.385 0.212,0 0.383,0.173 0.383,0.385 v 3.872 c 0,0.213 -0.171,0.385 -0.383,0.385 z"
   id="path877" />
		</g>
	</g>
	<g
   id="g954">
		<g
   id="XMLID_3409_">
			<g
   id="XMLID_3423_">
				<g
   id="XMLID_339_">
					<path
   fill="#ffdb76"
   d="m 113.438,113.677 c 2.311,-3.878 3.663,-8.396 3.663,-13.239 0,-14.324 -11.61,-25.936 -25.935,-25.936 -14.325,0 -25.935,11.611 -25.935,25.936 0,4.844 1.352,9.361 3.664,13.239 h -0.101 c 10.639,16.483 9.536,24.038 9.536,24.038 h 12.835 12.836 c 0,0 -1.108,-7.555 9.53,-24.038 z"
   id="path883" />
				</g>
			</g>
			<g
   id="XMLID_3453_">
				<path
   fill="#b2b2b2"
   d="m 105.792,96.501 1.292,-0.449 c -0.017,-0.419 -0.046,-0.834 -0.089,-1.247 l -1.345,-0.256 c -0.034,-0.245 -0.075,-0.494 -0.124,-0.735 l 1.186,-0.678 c -0.09,-0.407 -0.195,-0.81 -0.317,-1.209 l -1.364,-0.01 c -0.08,-0.235 -0.161,-0.469 -0.254,-0.7 l 1.039,-0.883 c -0.161,-0.383 -0.343,-0.758 -0.53,-1.127 l -1.348,0.242 c -0.121,-0.217 -0.248,-0.43 -0.381,-0.641 l 0.862,-1.062 c -0.228,-0.346 -0.476,-0.681 -0.732,-1.01 l -1.272,0.488 c -0.157,-0.19 -0.319,-0.378 -0.495,-0.562 l 0.651,-1.196 c -0.291,-0.298 -0.589,-0.586 -0.906,-0.86 l -1.164,0.716 c -0.188,-0.162 -0.388,-0.316 -0.586,-0.462 l 0.418,-1.298 c -0.167,-0.121 -0.341,-0.24 -0.513,-0.355 -0.177,-0.112 -0.358,-0.222 -0.536,-0.325 l -1.01,0.914 c -0.221,-0.121 -0.445,-0.239 -0.667,-0.349 l 0.18,-1.353 C 97.405,81.92 97.016,81.762 96.633,81.62 l -0.828,1.085 c -0.237,-0.081 -0.479,-0.153 -0.718,-0.223 l -0.075,-1.358 c -0.407,-0.102 -0.813,-0.188 -1.224,-0.256 l -0.613,1.223 C 92.943,82.056 92.71,82.03 92.482,82.012 92.465,82.009 92.451,82.006 92.433,82.006 l -0.326,-1.322 c -0.124,-0.01 -0.244,-0.016 -0.363,-0.018 -0.139,-0.007 -0.276,-0.012 -0.415,-0.012 -0.159,-0.004 -0.314,-0.004 -0.473,0 l -0.265,0.934 -0.113,0.381 c -0.245,0.01 -0.496,0.029 -0.744,0.056 l -0.562,-1.243 c -0.415,0.052 -0.828,0.12 -1.237,0.204 l -0.13,1.358 c -0.238,0.058 -0.485,0.122 -0.724,0.19 l -0.785,-1.118 c -0.395,0.127 -0.785,0.273 -1.171,0.429 l 0.119,1.361 c -0.231,0.099 -0.453,0.205 -0.673,0.318 l -0.978,-0.958 c -0.366,0.199 -0.725,0.412 -1.073,0.637 l 0.366,1.312 c -0.204,0.142 -0.403,0.289 -0.603,0.441 l -1.137,-0.761 c -0.32,0.263 -0.632,0.536 -0.937,0.825 l 0.604,1.223 c -0.174,0.175 -0.346,0.354 -0.511,0.541 l -1.258,-0.536 c -0.265,0.318 -0.527,0.642 -0.773,0.983 l 0.822,1.094 c -0.072,0.101 -0.142,0.205 -0.21,0.309 -0.063,0.104 -0.133,0.211 -0.197,0.317 l -1.335,-0.3 c -0.207,0.363 -0.398,0.735 -0.577,1.107 l 1.004,0.926 c -0.101,0.228 -0.194,0.456 -0.285,0.69 l -1.364,-0.05 c -0.136,0.395 -0.259,0.793 -0.366,1.193 l 1.16,0.725 c -0.059,0.242 -0.111,0.487 -0.153,0.732 l -1.35,0.202 c -0.059,0.412 -0.109,0.825 -0.139,1.239 l 1.271,0.496 c -0.012,0.249 -0.017,0.497 -0.015,0.748 l -1.286,0.45 c 0.013,0.414 0.037,0.833 0.089,1.246 l 1.339,0.256 c 0.035,0.245 0.075,0.49 0.124,0.735 l -1.186,0.678 c 0.091,0.407 0.196,0.809 0.32,1.209 l 1.367,0.006 c 0.075,0.236 0.162,0.47 0.255,0.701 l -1.046,0.885 c 0.162,0.384 0.344,0.756 0.534,1.128 l 1.345,-0.245 c 0.124,0.22 0.247,0.43 0.381,0.641 l -0.862,1.063 c 0.228,0.344 0.478,0.681 0.732,1.007 l 1.277,-0.487 c 0.155,0.193 0.316,0.381 0.487,0.564 l -0.648,1.197 c 0.288,0.297 0.594,0.583 0.905,0.859 l 1.165,-0.714 c 0.188,0.157 0.388,0.312 0.586,0.461 l -0.419,1.298 c 0.171,0.118 0.341,0.24 0.521,0.353 0.173,0.115 0.351,0.221 0.529,0.325 l 1.013,-0.914 c 0.223,0.124 0.441,0.239 0.664,0.349 l -0.177,1.355 c 0.384,0.174 0.765,0.328 1.154,0.471 l 0.828,-1.082 c 0.236,0.081 0.478,0.15 0.714,0.22 l 0.075,1.358 c 0.411,0.105 0.813,0.188 1.224,0.258 l 0.614,-1.224 c 0.248,0.038 0.494,0.066 0.741,0.088 l 0.326,1.323 c 0.421,0.023 0.837,0.037 1.252,0.028 l 0.381,-1.314 c 0.245,-0.013 0.493,-0.029 0.741,-0.056 l 0.565,1.243 c 0.412,-0.054 0.825,-0.124 1.234,-0.208 l 0.13,-1.354 c 0.245,-0.059 0.484,-0.122 0.724,-0.194 l 0.784,1.119 c 0.398,-0.124 0.785,-0.271 1.175,-0.429 l -0.122,-1.358 c 0.23,-0.102 0.453,-0.205 0.678,-0.321 l 0.976,0.959 c 0.362,-0.197 0.721,-0.413 1.069,-0.638 l -0.365,-1.312 c 0.204,-0.139 0.405,-0.286 0.605,-0.439 l 1.134,0.759 c 0.319,-0.263 0.637,-0.536 0.938,-0.821 l -0.604,-1.224 c 0.18,-0.175 0.346,-0.357 0.514,-0.542 l 1.252,0.533 c 0.271,-0.313 0.529,-0.64 0.775,-0.979 l -0.819,-1.094 c 0.069,-0.104 0.139,-0.208 0.208,-0.312 0.069,-0.104 0.133,-0.208 0.196,-0.314 l 1.336,0.297 c 0.207,-0.363 0.398,-0.735 0.576,-1.107 l -1.004,-0.923 c 0.102,-0.228 0.195,-0.459 0.283,-0.692 l 1.366,0.049 c 0.136,-0.396 0.257,-0.794 0.367,-1.191 l -1.157,-0.724 c 0.056,-0.242 0.107,-0.49 0.15,-0.732 l 1.347,-0.205 c 0.063,-0.412 0.112,-0.825 0.145,-1.237 l -1.274,-0.499 c 0.011,-0.247 0.017,-0.496 0.014,-0.744 z M 98.503,86.46 c 2.392,1.734 4.004,4.181 4.728,6.854 l -8.007,1.719 C 94.978,94.389 94.583,93.807 94.055,93.337 Z M 90.59,84.096 c 0.383,-0.021 0.764,-0.021 1.152,0 1.933,0.087 3.865,0.624 5.646,1.644 l -4.451,6.879 c -0.648,-0.292 -1.338,-0.413 -2.019,-0.373 l -1.723,-8.009 c 0.459,-0.072 0.927,-0.121 1.395,-0.141 z m -2.695,0.421 1.722,8.008 c -0.586,0.221 -1.128,0.57 -1.584,1.04 -0.038,0.04 -0.075,0.085 -0.115,0.128 l -6.873,-4.447 c 1.73,-2.395 4.177,-4.005 6.85,-4.729 z m -7.574,5.843 6.872,4.444 c -0.285,0.645 -0.405,1.338 -0.368,2.028 l -8.004,1.717 c -0.436,-2.737 0.029,-5.627 1.5,-8.189 z m 3.504,16.34 c -2.392,-1.733 -4.003,-4.177 -4.725,-6.851 l 8.001,-1.716 c 0.226,0.577 0.571,1.119 1.041,1.575 0.044,0.04 0.09,0.078 0.13,0.115 z m 1.117,0.724 4.45,-6.876 c 0.359,0.161 0.747,0.276 1.139,0.335 0.297,0.043 0.592,0.052 0.883,0.034 l 1.719,8.007 c -2.738,0.438 -5.625,-0.029 -8.191,-1.5 z m 9.493,1.223 -1.723,-8.011 c 0.646,-0.245 1.23,-0.643 1.693,-1.165 l 6.879,4.447 c -1.731,2.394 -4.18,4.005 -6.849,4.729 z m 7.57,-5.844 -6.876,-4.447 c 0.294,-0.654 0.412,-1.347 0.372,-2.025 l 8.007,-1.716 c 0.435,2.738 -0.027,5.626 -1.503,8.188 z"
   id="path887" />
			</g>
			<g
   id="XMLID_3410_">
				<g
   id="XMLID_3412_">
					<path
   fill="#333333"
   d="m 96.227,120.925 v 20.356 h 1.114 v -20.356 c 0.539,-0.221 0.919,-0.749 0.919,-1.368 0,-0.815 -0.661,-1.477 -1.478,-1.477 -0.815,0 -1.477,0.661 -1.477,1.477 10e-4,0.619 0.382,1.147 0.922,1.368 z"
   id="path890" />
				</g>
				<g
   id="XMLID_3411_">
					<path
   fill="#333333"
   d="m 84.994,120.925 v 20.356 h 1.115 v -20.356 c 0.539,-0.221 0.919,-0.749 0.919,-1.368 0,-0.815 -0.66,-1.477 -1.477,-1.477 -0.815,0 -1.477,0.661 -1.477,1.477 0.001,0.619 0.381,1.147 0.92,1.368 z"
   id="path893" />
				</g>
			</g>
			<g
   id="XMLID_3413_">
				<g
   id="XMLID_3421_">
					<g
   id="XMLID_3422_">
						<polygon
   fill="#565656"
   points="101.285,149.404 104.003,144.672 104.003,138.041 91.167,138.041 78.332,138.041 78.332,144.672 81.05,149.404 91.167,149.404 "
   id="polygon897" />
					</g>
				</g>
				<g
   id="XMLID_3414_">
					<g
   id="XMLID_3419_">
						<g
   id="XMLID_3420_">
							<path
   fill="#333333"
   d="m 105.369,137.142 c 0,0.608 -0.465,1.105 -1.048,1.105 H 78.009 c -0.574,0 -1.044,-0.497 -1.044,-1.105 v 0 c 0,-0.611 0.47,-1.108 1.044,-1.108 h 26.312 c 0.583,-0.001 1.048,0.496 1.048,1.108 z"
   id="path901" />
						</g>
					</g>
					<g
   id="XMLID_3417_">
						<g
   id="XMLID_3418_">
							<path
   fill="#333333"
   d="m 87.234,140.058 h 17.087 c 0.583,0 1.048,0.495 1.048,1.107 v 0 c 0,0.609 -0.465,1.105 -1.048,1.105 H 78.009 c -0.574,0 -1.044,-0.495 -1.044,-1.105 v 0 c 0,-0.612 0.47,-1.107 1.044,-1.107 z"
   id="path905" />
						</g>
					</g>
					<g
   id="XMLID_3415_">
						<g
   id="XMLID_3416_">
							<path
   fill="#333333"
   d="m 104.109,145.896 c 0,0.557 -0.429,1.006 -0.953,1.006 H 79.183 c -0.528,0 -0.955,-0.449 -0.955,-1.006 v 0 c 0,-0.557 0.427,-1.01 0.955,-1.01 h 23.974 c 0.524,0.001 0.952,0.454 0.952,1.01 z"
   id="path909" />
						</g>
					</g>
				</g>
			</g>
		</g>
		<g
   id="g952">
			<g
   id="g918">
				<path
   fill="#333333"
   d="m 119.603,91.488 c 0,-2.017 0,-32.253 0,-32.253 L 91.17,72.102 62.731,59.235 c 0,0 0,30.236 0,32.253 z"
   id="path916" />
			</g>
			<g
   id="g922">
				<path
   fill="#333333"
   d="m 119.603,59.235 c 0,0 0,2.914 0,6.99 L 91.164,79.084 62.732,66.217 c 0,-4.071 0,-6.981 0,-6.981 L 91.17,72.103 Z"
   id="path920" />
			</g>
			<g
   id="g950">
				<g
   id="g926">
					<polygon
   fill="#757575"
   points="91.167,69.122 91.168,69.122 91.167,72.112 42.028,52.428 42.028,49.709 42.049,49.7 "
   id="polygon924" />
				</g>
				<g
   id="g930">
					<polygon
   fill="#333333"
   points="42.027,49.691 91.529,30.596 139.393,49.709 91.167,69.122 "
   id="polygon928" />
				</g>
				<g
   id="g940">
					<g
   id="g934">
						<rect
   x="135.879"
   y="51.652"
   fill="#333333"
   width="2.8740001"
   height="30.18"
   id="rect932" />
					</g>
					<g
   id="g938">
						<path
   fill="#333333"
   d="m 141.867,82.911 c 0,-2.514 -2.034,-4.551 -4.55,-4.551 -2.514,0 -4.551,2.037 -4.551,4.551 0,2.511 2.037,4.553 4.551,4.553 2.516,0 4.55,-2.042 4.55,-4.553 z"
   id="path936" />
					</g>
				</g>
				<g
   id="g944">
					<path
   fill="#333333"
   d="m 140.738,85.19 h -5.746 c -0.96,2.569 -3.086,9.631 -1.88,19.308 h 0.003 c 0,0.581 2.123,1.053 4.744,1.053 2.619,0 4.742,-0.472 4.742,-1.053 1.21,-9.677 -0.907,-16.738 -1.863,-19.308 z"
   id="path942" />
				</g>
				<g
   id="g948">
					<polygon
   fill="#b2b2b2"
   points="139.393,49.709 139.372,49.7 91.168,69.122 91.168,72.112 139.393,52.428 "
   id="polygon946" />
				</g>
			</g>
		</g>
	</g>
	<g
   id="XMLID_439_">
		<g
   id="XMLID_442_">
			<path
   fill="#ffffff"
   d="m 72.614,41.007 c -1.689,0 -3.063,-1.373 -3.063,-3.061 0,1.688 -1.369,3.061 -3.061,3.061 1.691,0 3.061,1.374 3.061,3.062 0,-1.688 1.374,-3.062 3.063,-3.062 z"
   id="path956" />
		</g>
		<g
   id="XMLID_440_">
			<path
   fill="#ffffff"
   d="m 76.112,43.89 c -0.807,0 -1.463,-0.655 -1.463,-1.462 0,0.807 -0.653,1.462 -1.462,1.462 0.809,0 1.462,0.656 1.462,1.462 0,-0.806 0.657,-1.462 1.463,-1.462 z"
   id="path959" />
		</g>
		<g
   id="XMLID_579_">
			<path
   fill="#ffffff"
   d="m 72.729,32.058 c -0.808,0 -1.464,-0.656 -1.464,-1.462 0,0.806 -0.654,1.462 -1.462,1.462 0.808,0 1.462,0.656 1.462,1.462 0.001,-0.806 0.657,-1.462 1.464,-1.462 z"
   id="path962" />
		</g>
	</g>
</g>
</svg>
