<?xml version="1.0" encoding="UTF-8" standalone="no"?>
<svg
   xmlns:dc="http://purl.org/dc/elements/1.1/"
   xmlns:cc="http://creativecommons.org/ns#"
   xmlns:rdf="http://www.w3.org/1999/02/22-rdf-syntax-ns#"
   xmlns:svg="http://www.w3.org/2000/svg"
   xmlns="http://www.w3.org/2000/svg"
   xmlns:sodipodi="http://sodipodi.sourceforge.net/DTD/sodipodi-0.dtd"
   xmlns:inkscape="http://www.inkscape.org/namespaces/inkscape"
   width="713"
   height="713"
   viewBox="0 0 146.0224 146"
   version="1.1"
   id="svg851"
   sodipodi:docname="mongodb.svg"
   inkscape:version="1.0.2 (e86c8708, 2021-01-15)">
  <metadata
     id="metadata857">
    <rdf:RDF>
      <cc:Work
         rdf:about="">
        <dc:format>image/svg+xml</dc:format>
        <dc:type
           rdf:resource="http://purl.org/dc/dcmitype/StillImage" />
        <dc:title></dc:title>
      </cc:Work>
    </rdf:RDF>
  </metadata>
  <defs
     id="defs855" />
  <sodipodi:namedview
     pagecolor="#ffffff"
     bordercolor="#666666"
     borderopacity="1"
     objecttolerance="10"
     gridtolerance="10"
     guidetolerance="10"
     inkscape:pageopacity="0"
     inkscape:pageshadow="2"
     inkscape:window-width="2560"
     inkscape:window-height="999"
     id="namedview853"
     showgrid="false"
     units="px"
     inkscape:zoom="0.2672"
     inkscape:cx="1250"
     inkscape:cy="356.5"
     inkscape:window-x="282"
     inkscape:window-y="31"
     inkscape:window-maximized="0"
     inkscape:current-layer="svg851" />
  <g
     fill="none"
     fill-rule="evenodd"
     id="g849"
     transform="translate(42.922156,1.5329341)">
    <path
       d="m 35.053,142.317 -3.783,-1.293 c 0,0 0.462,-19.286 -6.46,-20.67 -4.613,-5.353 0.74,-227.013 17.35,-0.739 0,0 -5.722,2.86 -6.737,7.752 -1.108,4.799 -0.37,14.95 -0.37,14.95 z"
       fill="#ffffff"
       id="path837" />
    <path
       d="m 35.053,142.317 -3.783,-1.293 c 0,0 0.462,-19.286 -6.46,-20.67 -4.613,-5.353 0.74,-227.013 17.35,-0.739 0,0 -5.722,2.86 -6.737,7.752 -1.108,4.799 -0.37,14.95 -0.37,14.95 z"
       fill="#a6a385"
       id="path839" />
    <path
       d="m 37.084,123.676 c 0,0 33.13,-21.779 25.377,-67.09 C 54.987,23.643 37.361,12.846 35.423,8.693 33.301,5.74 31.27,0.573 31.27,0.573 l 1.385,91.634 c 0,0.093 -2.861,28.054 4.43,31.47"
       fill="#ffffff"
       id="path841" />
    <path
       d="m 37.084,123.676 c 0,0 33.13,-21.779 25.377,-67.09 C 54.987,23.643 37.361,12.846 35.423,8.693 33.301,5.74 31.27,0.573 31.27,0.573 l 1.385,91.634 c 0,0.093 -2.861,28.054 4.43,31.47"
       fill="#499d4a"
       id="path843" />
    <path
       d="m 29.333,124.875 c 0,0 -31.1,-21.225 -29.254,-58.598 1.753,-37.374 23.716,-55.738 27.961,-59.06 2.769,-2.953 2.861,-4.061 3.046,-7.014 1.938,4.153 1.569,62.106 1.845,68.934 0.83,26.3 -1.476,50.756 -3.598,55.738 z"
       fill="#ffffff"
       id="path845" />
    <path
       d="m 29.333,124.875 c 0,0 -31.1,-21.225 -29.254,-58.598 1.753,-37.374 23.716,-55.738 27.961,-59.06 2.769,-2.953 2.861,-4.061 3.046,-7.014 1.938,4.153 1.569,62.106 1.845,68.934 0.83,26.3 -1.476,50.756 -3.598,55.738 z"
       fill="#58aa50"
       id="path847" />
  </g>
</svg>
