<svg xmlns="http://www.w3.org/2000/svg" xml:space="preserve" width="2048" height="2048" style="shape-rendering:geometricPrecision;text-rendering:geometricPrecision;image-rendering:optimizeQuality;fill-rule:evenodd;clip-rule:evenodd"><defs><clipPath id="id0"><path d="M1024 0c565.539 0 1024 458.461 1024 1024s-458.461 1024-1024 1024S0 1589.539 0 1024 458.461 0 1024 0z"/></clipPath><style>.fil1{fill:#d32f2f}.fil4{fill:#fbc02d}.fil5{fill:#00695c;fill-rule:nonzero}</style></defs><g id="Layer_x0020_1"><path d="M1024 0c565.539 0 1024 458.461 1024 1024s-458.461 1024-1024 1024S0 1589.539 0 1024 458.461 0 1024 0z" style="fill:#ef5350"/><g style="clip-path:url(#id0)"><g id="_341191936"><path id="_4558329521" class="fil1" d="M1315.1 496.785 2450.98 1632.67l1.34 1.62 1.3 1.66 1.25 1.68 1.21 1.71 1.15 1.74 1.11 1.77 1.06 1.79 1.01 1.82.96 1.84.9 1.87.85 1.89.8 1.91.75 1.94.69 1.95.63 1.98.58 2 .51 2.02.47 2.03.4 2.06.34 2.07.28 2.09.22 2.11.16 2.12.1 2.13.03 2.15L1333.2 544.743l-.03-2.151-.1-2.137-.16-2.121-.22-2.106-.28-2.089-.34-2.073-.4-2.054-.47-2.036-.51-2.019-.58-1.997-.64-1.978-.69-1.958-.74-1.934-.8-1.914-.85-1.889-.91-1.868-.95-1.842-1.01-1.818-1.06-1.792-1.11-1.767-1.15-1.738-1.21-1.713-1.25-1.684-1.3-1.655z"/><path id="_455833360" class="fil1" d="M1333.2 544.743 2469.08 1680.62v54.98L1333.2 599.717z"/><path id="_455833936" class="fil1" d="M1422.68 608.521 2558.56 1744.4l1.39 1.87 1.21 1.99 1.02 2.11.82 2.23.59 2.32.37 2.4.12 2.47L1428.2 623.91l-.12-2.474-.37-2.402-.6-2.319-.81-2.222-1.02-2.115-1.21-1.994z"/><path id="_455833600" class="fil1" d="m1428.2 623.91 1135.88 1135.88-.12 2.48-.37 2.4-.59 2.32-.82 2.22-1.02 2.12-1.21 1.99-1.39 1.86-1.56 1.72-1.72 1.56-1.86 1.4-2 1.21-2.11 1.02-2.23.81-2.32.6-2.4.36-2.47.13L1404.01 648.104l2.47-.125 2.4-.366 2.32-.596 2.23-.814 2.11-1.018 2-1.212 1.86-1.394 1.72-1.561 1.56-1.718 1.39-1.862 1.21-1.995 1.02-2.115.81-2.223.6-2.319.37-2.402z"/><path id="_455833432" class="fil1" d="M1404.01 648.104 2539.89 1783.99h-42.41L1361.59 648.104z"/><path id="_455833984" class="fil1" d="M1361.59 648.104 2497.48 1783.99l-1.35 17.76L1360.25 665.868z"/><path id="_455834752" class="fil1" d="M1360.25 665.868 2496.13 1801.75l-19.44 256.56L1340.81 922.43z"/><path id="_455834896" class="fil1" d="m1340.81 922.43 1135.88 1135.88-3.66 48.44L1337.14 970.866z"/><path id="_455834824" class="fil1" d="M1337.14 970.866 2473.03 2106.75l-16.98 224.01-1135.88-1135.88z"/><path id="_455834584" class="fil1" d="m1322.69 1194.88 1135.88 1135.88-6.02 46.32L1316.66 1241.2z"/><path id="_455834320" class="fil1" d="M686.406 648.104 1822.29 1783.99h-42.42L643.992 648.104z"/><path id="_455834656" class="fil1" d="m1292.39 1561.6 1135.88 1135.88-1.69 22.4L1290.7 1584z"/><path id="_455834344" class="fil1" d="m1290.7 1584 1135.88 1135.88h-22.41L1268.29 1584z"/><path id="_455834848" class="fil1" d="m1268.29 1584 1135.88 1135.88h-488.58L779.708 1584z"/><path id="_455834464" class="fil1" d="M779.708 1584 1915.59 2719.88h-22.4L757.306 1584z"/><path id="_455834680" class="fil1" d="M643.992 648.104 1779.87 1783.99l-2.47-.13-2.4-.36-2.32-.6-2.22-.81-2.12-1.02-1.99-1.21-1.87-1.4-1.71-1.56L626.885 641.018l1.717 1.561 1.863 1.394 1.995 1.212 2.115 1.018 2.223.814 2.318.596 2.403.366z"/><path id="_455835520" class="fil1" d="m1316.66 1241.2 1135.89 1135.88-24.28 320.4L1292.39 1561.6z"/><path id="_341192104" class="fil1" d="M806.852 463.999h434.296c24.395 0 46.832 8.535 63.33 22.283 17.722 14.77 28.722 35.445 28.722 58.46v54.975h70.808c13.362 0 24.194 10.832 24.194 24.193 0 13.363-10.832 24.195-24.194 24.195h-42.413l-1.346 17.763-19.436 256.562-3.668 48.436-16.972 224.014h2.52l-6.029 46.32-24.273 320.402-1.696 22.4h-533.39l-1.696-22.4-25.437-335.77-4.865-30.952h2.52l-16.823-222.078-3.816-50.372-19.437-256.562-1.345-17.764h-42.414c-13.362 0-24.194-10.831-24.194-24.194 0-13.361 10.832-24.193 24.194-24.193H714.8v-54.974c0-23.018 11-43.694 28.722-58.462C760.018 472.533 782.458 464 806.852 464z"/></g></g><path d="M1024 0c565.539 0 1024 458.461 1024 1024s-458.461 1024-1024 1024S0 1589.539 0 1024 458.461 0 1024 0z" style="fill:none"/><path style="fill:#00897b" d="M711.851 639.878h650.369l-1.97 25.99-67.86 895.732-1.69 22.4H757.306l-1.698-22.4-67.856-895.732-1.968-25.99z"/><path class="fil4" d="m1340.81 922.429-3.67 48.437-626.136 1.936-3.816-50.373zM725.307 1194.88h597.383l-6.3 48.39-583.158 2.03zM1026.01 1003.36c24.32 0 46.34 9.861 62.28 25.801 15.939 15.938 25.798 37.96 25.798 62.279 0 24.317-9.86 46.338-25.798 62.278-15.94 15.939-37.96 25.8-62.28 25.8-24.318 0-46.338-9.861-62.278-25.8-15.94-15.94-25.8-37.96-25.8-62.278 0-24.32 9.86-46.341 25.8-62.279 15.94-15.94 37.96-25.801 62.278-25.801z"/><path class="fil5" d="M643.992 599.717c-13.362 0-24.194 10.832-24.194 24.194 0 13.36 10.832 24.193 24.194 24.193h760.016c13.362 0 24.194-10.833 24.194-24.193 0-13.362-10.832-24.194-24.194-24.194H643.992z"/><path class="fil5" d="M806.852 463.999h434.296c24.393 0 46.832 8.535 63.33 22.283 17.722 14.77 28.722 35.445 28.722 58.46v79.169l-.001 24.194H714.802l-.002-24.194v-79.168c0-23.018 11-43.694 28.722-58.461 16.497-13.748 38.937-22.283 63.33-22.283z"/></g></svg>
