<svg xmlns="http://www.w3.org/2000/svg" xml:space="preserve" width="2048" height="2048" style="shape-rendering:geometricPrecision;text-rendering:geometricPrecision;image-rendering:optimizeQuality;fill-rule:evenodd;clip-rule:evenodd"><defs><clipPath id="id0"><path d="M1024-.001c565.541 0 1024 458.46 1024 1024s-458.461 1024-1024 1024c-565.541 0-1024-458.461-1024-1024 0-565.541 458.461-1024 1024-1024z"/></clipPath><style>.fil1{fill:#c62828}.fil6,.fil8{fill:#90a4ae;fill-rule:nonzero}.fil6{fill:#ba9773}</style></defs><g id="Layer_x0020_1"><path d="M1024-.001c565.541 0 1024 458.46 1024 1024s-458.461 1024-1024 1024c-565.541 0-1024-458.461-1024-1024 0-565.541 458.461-1024 1024-1024z" style="fill:#e53935"/><g style="clip-path:url(#id0)"><g id="_517131928"><path id="_4899595441" class="fil1" d="m1529.51 598.01 1135.88 1135.88.98 1.2.74 1.3.53 1.42.36 1.59.22 1.77.11 1.99.05 2.25.01 2.54L1532.51 612.064l-.01-2.534-.05-2.249-.11-1.995-.22-1.773-.36-1.583-.53-1.423-.74-1.296z"/><path id="_489959904" class="fil1" d="M1532.51 612.064 2668.39 1747.95l9.38 107.06L1541.89 719.123z"/><path id="_489961392" class="fil1" d="M1578.54 737.22 2714.43 1873.1l1.02 1.28.93 1.35.82 1.42.72 1.46.61 1.51.51 1.55.38 1.59.27 1.62.16 1.63.03 1.65L1584 752.282l-.04-1.651-.15-1.637-.27-1.615-.39-1.587-.5-1.553-.61-1.512-.72-1.463-.82-1.411-.93-1.35z"/><path id="_489961200" class="fil1" d="M1584 752.282 2719.88 1888.16v684.2L1584 1436.48z"/><path id="_489961008" class="fil1" d="m1584 1436.48 1135.88 1135.88-.12 2.3-.34 2.22-.55 2.15-.75 2.05-.95 1.96-1.12 1.85-1.29 1.72-1.44 1.59-1.59 1.45-1.73 1.29-1.85 1.12-1.95.94-2.06.76-2.15.55-2.22.34-2.29.11L1561.6 1458.88l2.29-.11 2.22-.34 2.15-.56 2.05-.75 1.96-.94 1.85-1.12 1.72-1.29 1.6-1.45 1.44-1.59 1.29-1.72 1.12-1.85.95-1.96.75-2.06.55-2.14.34-2.23z"/><path id="_489961104" class="fil1" d="m1561.6 1458.88 1135.88 1135.88-1.2-.03-1.18-.09-1.16-.15-1.15-.22-1.12-.27-1.1-.32-1.07-.38-1.05-.43-1135.88-1135.88 1.05.43 1.07.38 1.1.32 1.12.27 1.15.21 1.16.16 1.18.09z"/><path id="_489961416" class="fil1" d="m1552.57 1456.99 1135.88 1135.88-86.47-33.04L1466.1 1423.95z"/><path id="_489961224" class="fil1" d="m1466.1 1423.95 1135.88 1135.88-6.04-2.25-6.07-2.16-6.1-2.06-6.13-1.96-6.15-1.86-6.18-1.77-6.21-1.67-6.22-1.58-6.25-1.48-6.27-1.38-6.28-1.29-6.3-1.19-6.32-1.1-6.33-1-6.35-.91-6.36-.81-6.37-.72-6.38-.62-6.39-.53-6.39-.43-6.4-.35-6.41-.24-6.4-.16-6.41-.06-6.41.04-6.41.12-6.4.22-6.41.31-6.39.4-6.4.5-6.38.59-6.38.68-1135.88-1135.89 6.38-.67 6.38-.59 6.39-.5 6.4-.4 6.4-.31 6.41-.22 6.41-.13 6.41-.03 6.41.06 6.4.15 6.41.25 6.4.34 6.39.44 6.39.53 6.38.62 6.37.72 6.36.81 6.34.91 6.34 1 6.32 1.1 6.3 1.19 6.28 1.29 6.27 1.38 6.25 1.48 6.22 1.57 6.21 1.68 6.18 1.76 6.15 1.87 6.13 1.96 6.1 2.06 6.07 2.16z"/><path id="_489961680" class="fil1" d="m1264.21 1399.22 1135.88 1135.89-6.38.77-6.37.87-6.36.95-6.34 1.05-6.33 1.15-6.31 1.23-6.29 1.32-6.28 1.42-6.25 1.51-6.23 1.59-6.21 1.69-6.18 1.78-6.16 1.87-6.13 1.96-6.1 2.05-6.07 2.14-6.04 2.23-6.01 2.31-5.97 2.41-5.94 2.5-5.91 2.58-5.86 2.67-5.83 2.77-5.78 2.85-5.74 2.93-5.71 3.03-5.65 3.11-5.61 3.2-5.56 3.29-5.52 3.38-5.47 3.46-5.41 3.55-1135.88-1135.88 5.41-3.55 5.47-3.46 5.51-3.38 5.57-3.29 5.61-3.2 5.65-3.11 5.7-3.03 5.75-2.94 5.78-2.85 5.83-2.76 5.86-2.67 5.91-2.59 5.93-2.49 5.98-2.41 6.01-2.32 6.04-2.22 6.07-2.14 6.1-2.05 6.13-1.96 6.16-1.87 6.18-1.78 6.21-1.69 6.23-1.6 6.25-1.5 6.28-1.42 6.29-1.32 6.31-1.24 6.33-1.14 6.34-1.05 6.36-.96 6.37-.86z"/><path id="_489961992" class="fil1" d="m1072.21 1468.85 1135.88 1135.88-35.78 23.86L1036.43 1492.7z"/><path id="_489962064" class="fil1" d="m1036.43 1492.7 1135.88 1135.89-1.51.92-1.55.79-1.58.65-1.61.54-1.64.4-1.65.27-1.65.16-1.66.02-1.65-.09-1.64-.21-1.61-.34-1.59-.45-1.55-.56-1.51-.68-1.47-.8-1.4-.9-1135.88-1135.89 1.4.91 1.47.8 1.51.68 1.55.56 1.59.45 1.61.34 1.64.21 1.65.09 1.66-.03 1.65-.15 1.65-.27 1.64-.41 1.61-.53 1.58-.66 1.55-.79z"/><path id="_489962040" class="fil1" d="m1011.16 1492.42 1135.88 1135.89-35.37-23.58L975.791 1468.85z"/><path id="_489961560" class="fil1" d="M975.791 1468.85 2111.67 2604.73l-5.41-3.55-5.47-3.46-5.51-3.38-5.57-3.29-5.61-3.2-5.65-3.11-5.7-3.03-5.75-2.93-5.78-2.85-5.83-2.77-5.86-2.67-5.9-2.58-5.94-2.5-5.98-2.41-6.01-2.31-6.04-2.23-6.07-2.14-6.1-2.05-6.13-1.96-6.16-1.87-6.18-1.78-6.21-1.69-6.23-1.59-6.25-1.51-6.28-1.42-6.29-1.32-6.31-1.23-6.33-1.15-6.34-1.05-6.36-.95-6.37-.87-6.38-.77L783.787 1399.22l6.382.78 6.371.86 6.356.96 6.344 1.05 6.328 1.14 6.311 1.24 6.294 1.32 6.274 1.42 6.253 1.5 6.231 1.6 6.208 1.69 6.183 1.78 6.157 1.87 6.13 1.96 6.102 2.05 6.072 2.14 6.04 2.22 6.008 2.32 5.974 2.41 5.939 2.49 5.903 2.59 5.864 2.67 5.826 2.76 5.786 2.85 5.742 2.94 5.701 3.03 5.656 3.11 5.611 3.2 5.563 3.29 5.515 3.38 5.466 3.46z"/><path id="_489962184" class="fil1" d="M783.787 1399.22 1919.67 2535.11l-6.38-.68-6.38-.59-6.39-.5-6.4-.4-6.4-.31-6.41-.22-6.41-.12-6.41-.04-6.41.06-6.4.16-6.41.24-6.4.35-6.39.43-6.39.53-6.38.62-6.37.72-6.36.81-6.34.91-6.34 1-6.31 1.1-6.31 1.19-6.28 1.29-6.27 1.38-6.25 1.48-6.22 1.58-6.2 1.67-6.18 1.77-6.16 1.86-6.12 1.96-6.11 2.06-6.07 2.16-6.04 2.25L581.902 1423.95l6.041-2.25 6.07-2.16 6.101-2.06 6.127-1.96 6.154-1.87 6.179-1.76 6.204-1.68 6.225-1.57 6.247-1.48 6.267-1.38 6.285-1.29 6.302-1.19 6.319-1.1 6.333-1 6.347-.91 6.359-.81 6.37-.72 6.379-.62 6.388-.53 6.393-.44 6.4-.34 6.404-.25 6.408-.15 6.408-.06 6.409.03 6.409.13 6.406.22 6.403.31 6.397.4 6.392.5 6.384.59z"/><path id="_489961464" class="fil1" d="M581.902 1423.95 1717.78 2559.83l-87.5 33.46L494.399 1457.41z"/><path id="_489961776" class="fil1" d="M494.399 1457.41 1630.28 2593.29l-2.18.71-2.2.48-2.2.25-2.19.03-2.17-.19-2.12-.38-2.08-.59-2-.79-1.92-.97-1.82-1.15-1.7-1.32L471.815 1453.49l1.707 1.32 1.821 1.15 1.918.97 2.002.78 2.071.59 2.126.39 2.166.18 2.191-.03 2.203-.25 2.199-.47z"/><path id="_517132552" class="fil1" d="M791.577 554.723c74.83 8.503 224.29 75.652 238.658 75.652 68.904-40.657 148.202-66.625 227.643-75.652 84.975-9.657 171.338 2.937 251.116 33.312 23.37 8.898 23.511 9.693 23.511 24.03l9.38 107.058 28.529 12.16c8.626 3.693 13.74 12.162 13.582 21v684.2c0 12.37-10.03 22.4-22.4 22.4-3.213 0-6.267-.679-9.029-1.896l-86.47-33.038c-64.266-24.554-133.93-32.461-201.885-24.724-68.128 7.757-134.525 31.304-192.004 69.622l-35.783 23.856c-7.9 5.267-17.93 4.852-25.269-.28l-35.366-23.576c-57.478-38.318-123.875-61.865-192.004-69.622-67.953-7.738-137.619.17-201.885 24.724l-87.503 33.458c-11.556 4.415-24.505-1.373-28.92-12.93a22.366 22.366 0 0 1-1.476-8.409V751.874c0-9.811 6.309-18.15 15.09-21.18l27.021-11.57h10.999l-.163-107.06c0-14.336.14-15.13 23.51-24.03 79.778-30.373 166.142-42.968 251.117-33.31z"/></g></g><path d="M1024-.001c565.541 0 1024 458.46 1024 1024s-458.461 1024-1024 1024c-565.541 0-1024-458.461-1024-1024 0-565.541 458.461-1024 1024-1024z" style="fill:none"/><path d="m506.115 719.123-27.021 11.571c-8.782 3.03-15.09 11.368-15.09 21.18v684.194a22.366 22.366 0 0 0 1.475 8.41c4.415 11.555 17.365 17.344 28.92 12.929l-.008-.021 87.512-33.437c64.266-24.554 133.93-32.462 201.885-24.724 68.128 7.757 134.525 31.304 192.004 69.622l35.366 23.576c7.339 5.132 17.368 5.546 25.268.28l35.784-23.856c57.478-38.318 123.875-61.865 192.004-69.622 67.954-7.738 137.619.17 201.885 24.724l86.47 33.037a22.322 22.322 0 0 0 9.028 1.896c12.371 0 22.401-10.029 22.401-22.4v-684.2c.158-8.838-4.956-17.306-13.583-21l-8.818 20.592 8.75-20.563-28.46-12.188H506.117z" style="fill:#795548;fill-rule:nonzero"/><path d="M1526.65 1382.43c4.66 4.23 4.759-30.044 4.759-53.493l1.093-716.87c0-14.336-.14-15.13-23.51-24.029-79.778-30.374-166.142-42.968-251.117-33.312-79.44 9.028-158.739 34.995-227.643 75.652l-5.507 3.25v788.3c166.996-96.583 318.662-134.254 501.925-39.498z" style="fill:#ffe1c7"/><path d="M522.802 1382.43c-4.66 4.23-4.759-30.044-4.759-53.493l-1.093-716.87c0-14.336.14-15.13 23.51-24.029 79.778-30.374 166.142-42.968 251.117-33.312 79.44 9.028 158.739 34.995 227.643 75.652l5.507 3.25v788.3c-166.996-96.583-318.662-134.254-501.925-39.498z" style="fill:#ffd8b5"/><path class="fil6" d="M617.018 1160.38c-5.678 2.417-8.32 8.979-5.906 14.656 2.416 5.678 8.98 8.322 14.657 5.906 51.531-22.067 108.387-28.086 163.51-21.822 60.02 6.82 117.898 28.221 164.589 59.348 5.146 3.43 12.1 2.04 15.53-3.106 3.431-5.147 2.04-12.1-3.106-15.532-49.51-33.007-110.895-55.7-174.562-62.935-58.706-6.672-119.434-.184-174.711 23.485zM617.018 1076.21c-5.678 2.417-8.32 8.979-5.906 14.656 2.416 5.678 8.98 8.322 14.657 5.906 51.531-22.067 108.387-28.086 163.51-21.822 60.02 6.82 117.898 28.221 164.589 59.348 5.146 3.43 12.1 2.04 15.53-3.106 3.431-5.147 2.04-12.1-3.106-15.532-49.51-33.007-110.895-55.7-174.562-62.935-58.706-6.672-119.434-.184-174.711 23.485zM617.018 992.05c-5.678 2.417-8.32 8.979-5.906 14.656 2.416 5.678 8.98 8.322 14.657 5.906 51.531-22.067 108.387-28.086 163.51-21.822 60.02 6.82 117.898 28.221 164.589 59.348 5.146 3.43 12.1 2.04 15.53-3.106 3.431-5.147 2.04-12.1-3.106-15.532-49.51-33.007-110.895-55.7-174.562-62.935-58.706-6.672-119.434-.184-174.711 23.485zM617.018 907.887c-5.678 2.417-8.32 8.979-5.906 14.656 2.416 5.678 8.98 8.322 14.657 5.906 51.531-22.067 108.387-28.086 163.51-21.822 60.02 6.82 117.898 28.221 164.589 59.348 5.146 3.43 12.1 2.038 15.53-3.106 3.431-5.147 2.04-12.1-3.106-15.532-49.51-33.007-110.895-55.7-174.562-62.935-58.706-6.672-119.434-.184-174.711 23.485zM617.018 823.724c-5.678 2.417-8.32 8.979-5.906 14.656 2.416 5.678 8.98 8.322 14.657 5.906 51.531-22.067 108.387-28.086 163.51-21.822 60.02 6.82 117.898 28.221 164.589 59.348 5.146 3.43 12.1 2.038 15.53-3.106 3.431-5.147 2.04-12.1-3.106-15.532-49.51-33.007-110.895-55.7-174.562-62.935-58.706-6.672-119.434-.184-174.711 23.485zM617.018 739.561c-5.678 2.417-8.32 8.979-5.906 14.656 2.416 5.678 8.98 8.322 14.657 5.906 51.531-22.067 108.387-28.086 163.51-21.822 60.02 6.82 117.898 28.221 164.589 59.348 5.146 3.43 12.1 2.038 15.53-3.106 3.431-5.147 2.04-12.1-3.106-15.532-49.51-33.007-110.895-55.7-174.562-62.935-58.706-6.672-119.434-.184-174.711 23.485z"/><path d="M1200.09 834.458c14.878 13.265 30.081 26.816 64.69 28.75a7.12 7.12 0 0 1 2.471.457c3.832 1.45 5.44 5.918 3.592 9.977l-.017-.007-28.477 62.553a8.88 8.88 0 0 1-1.574 2.643c-2.929 3.423-7.804 4.072-10.888 1.451l.015-.017c-26.184-22.248-47.647-22.423-68.92-22.597-20.903-.171-41.644-.344-66.314-17.73-2.903-1.866-3.963-5.763-2.334-9.346l.017.006 36.582-80.354c1.342-3.537 4.925-5.987 8.615-5.664l-.003.016c32.218 2.824 47.23 16.208 62.545 29.862z" style="fill:#d84315;fill-rule:nonzero"/><path class="fil8" d="M1278.61 893.327c-1.394-.49-3.001-.081-4.155 1.057-2.093 2.097-1.592 5.418.934 6.34l.408.146.408.147.407.148.404.15.405.151.402.151.402.154.4.153.4.155.399.157.397.156.395.158.396.16.394.16.394.162.392.162.342.144c2.862 1.19 6.185-1.678 5.553-4.801-.242-1.136-.949-2.03-1.999-2.465l-.342-.144-.414-.171-.413-.17-.416-.17-.415-.167-.417-.167-.418-.165-.42-.164-.42-.163-.422-.163-.423-.16-.424-.16-.424-.159-.426-.157-.428-.156-.427-.154-.429-.155zm62.686 69.149c1.245 2.858 5.407 2.613 6.938-.417.556-1.098.61-2.326.156-3.365l-.128-.292-.182-.414-.184-.414-.184-.413-.187-.411-.187-.41-.189-.41-.189-.407-.189-.408-.192-.405-.191-.405-.194-.403-.195-.402-.195-.402-.197-.4-.197-.4-.199-.397-.059-.116c-1.64-3.17-6.509-2.013-7.247 1.73-.157.85-.05 1.668.314 2.392l.047.094.188.378.19.38.185.38.186.381.184.381.185.384.183.385.182.387.18.387.18.389.18.388.177.39.177.39.176.394.175.394.174.395.128.292zm-14.413-24.87c1.994 2.616 6.392 1.118 6.947-2.376.16-1.012-.08-2.02-.659-2.78l-.026-.036-.256-.336-.258-.336-.26-.335-.26-.334-.26-.333-.263-.331-.264-.33-.265-.33-.264-.326-.266-.327-.27-.328-.267-.323-.27-.324-.271-.323-.272-.32-.273-.32-.275-.32-.228-.264c-2.158-2.436-6.402-.762-6.828 2.69-.118 1.066.158 2.05.819 2.81l.212.246.258.299.257.301.256.304.254.302.255.305.254.307.25.304.251.309.252.31.249.309.247.311.248.312.246.313.244.316.244.314.244.316.242.32.026.035zm-20.013-20.09c2.208 1.671 5.626.164 6.273-2.764.3-1.456-.155-2.814-1.245-3.655l-.03-.023-.335-.254-.336-.252-.338-.253-.338-.25-.339-.25-.342-.248-.342-.247-.342-.247-.345-.244-.345-.243-.346-.244-.349-.242-.348-.24-.348-.238-.351-.237-.352-.238-.353-.235-.284-.188c-2.94-1.91-6.993 1.275-6.047 4.759.23.81.698 1.463 1.382 1.917l.264.176.334.22.33.224.331.224.328.225.329.227.327.226.326.228.325.23.323.23.323.232.322.233.32.234.32.235.32.236.317.236.318.239.315.239.028.022zM1273.18 913.757c-1.198-.579-2.633-.415-3.84.387-2.576 1.769-2.605 5.494-.041 6.733l.274.132.274.135.274.133.27.135.27.136.269.135.268.139.267.138.265.138.264.14.265.14.262.142.262.143.261.141.258.143.257.145.259.146.256.146.254.147.254.147.252.148.252.15.252.15.166.1c2.78 1.67 6.553-1.111 6.015-4.443-.181-1.026-.72-1.863-1.588-2.382l-.165-.1-.273-.164-.275-.163-.278-.163-.277-.161-.28-.161-.28-.16-.279-.158-.282-.158-.285-.157-.284-.156-.285-.155-.287-.155-.287-.152-.288-.152-.29-.153-.291-.15-.292-.148-.293-.15-.294-.147-.295-.148-.296-.145-.296-.144-.299-.144zm31.689 56.386c.23 1.395 1.16 2.422 2.494 2.779 2.78.68 5.554-1.918 5.115-4.801l-.012-.069-.054-.34-.056-.341-.057-.34-.058-.337-.059-.337-.06-.337-.061-.336-.062-.333-.063-.335-.065-.335-.065-.33-.068-.332-.067-.332-.069-.33-.07-.328-.07-.328-.073-.329-.074-.327-.074-.325-.074-.323-.077-.326-.078-.323-.078-.32-.018-.073c-.836-3.322-5.396-3.453-7.103-.203-.474.915-.612 1.92-.377 2.856l.01.044.073.296.07.296.072.297.068.299.069.3.067.3.066.299.065.302.065.303.064.304.061.304.062.305.061.308.06.305.057.308.058.309.057.31.054.31.055.313.054.313.052.312.052.313.05.316.011.069zm-9.572-26.726c.715 1.138 2.021 1.709 3.418 1.526 2.939-.422 4.7-3.817 3.198-6.21l-.043-.068-.164-.258-.164-.257-.166-.254-.166-.255-.168-.254-.169-.252-.17-.253-.171-.25-.172-.25-.175-.25-.174-.247-.176-.248-.176-.245-.177-.245-.18-.246-.181-.244-.18-.241-.183-.242-.183-.243-.186-.24-.185-.238-.187-.238-.187-.238-.19-.236-.19-.235-.068-.085c-.859-1.025-2.166-1.442-3.56-1.122-2.943.717-4.355 4.27-2.577 6.471l.05.061.17.212.17.211.167.213.168.214.168.215.164.213.164.215.163.217.164.22.161.218.16.217.159.22.16.222.156.222.158.222.154.222.154.224.155.226.152.224.15.227.15.227.15.228.149.23.147.23.147.23.042.067zM1262.5 935.607c-1.198-.579-2.633-.415-3.84.387-2.576 1.769-2.605 5.494-.041 6.733l.194.093.192.094.19.096.19.096.186.095.185.097.185.097.183.1.182.097.178.1.178.1.177.102.176.1.173.102.171.101.172.104.17.104.166.103.166.105.167.106.162.105.164.108.162.108.158.107.158.108.156.11.155.108.155.11.152.112.151.11.151.114.15.112.146.113.062.048c2.488 1.92 6.383-.279 6.385-3.61-.013-1.13-.466-2.12-1.315-2.777l-.064-.049-.183-.142-.186-.139-.184-.138-.187-.137-.189-.137-.189-.135-.19-.136-.195-.134-.193-.132-.196-.134-.196-.131-.198-.129-.2-.13-.201-.128-.202-.128-.207-.128-.205-.126-.206-.124-.209-.124-.21-.124-.212-.122-.211-.12-.214-.12-.217-.12-.217-.118-.219-.118-.218-.116-.224-.116-.223-.114-.224-.114-.226-.113-.228-.112-.229-.11zm12.97 34.426c.184 1.576 1.273 2.754 2.813 3.02 2.634.42 5.127-1.985 4.843-4.687l-.002-.007-.024-.226-.026-.225-.026-.226-.028-.224-.027-.225-.028-.22-.027-.224-.03-.225-.03-.224-.031-.22-.03-.222-.033-.221-.032-.221-.033-.223-.034-.222-.033-.218-.035-.22-.036-.222-.036-.216-.037-.22-.038-.219-.039-.22-.039-.216-.039-.217-.041-.219-.042-.213-.04-.218-.043-.216-.044-.216-.045-.215-.045-.215-.046-.215-.046-.214-.047-.212-.049-.214-.05-.213-.013-.065c-.304-1.267-1.19-2.159-2.42-2.504-2.898-.737-5.754 2.115-5.084 5.066l.01.037.042.185.041.184.042.187.041.187.04.186.04.188.038.188.038.189.038.188.036.19.037.192.035.19.036.192.034.195.034.192.033.193.033.192.032.2.032.194.031.194.032.2.03.196.029.196.028.2.03.2.027.2.028.201.026.2.026.2.026.202.026.206.025.203.025.204.023.203.024.205.023.205v.009z"/><path d="m1111.1 849.412 147.397 51.304 12.328-27.08.017.006c1.847-4.06.24-8.526-3.592-9.976a7.12 7.12 0 0 0-2.47-.457c-34.61-1.935-49.812-15.486-64.69-28.75-15.316-13.654-30.328-27.039-62.546-29.863l.003-.016c-3.69-.323-7.273 2.127-8.615 5.664l-17.832 39.168z" style="fill:#e64a19"/><path d="m1111.1 849.412-18.75 41.186-.017-.006c-1.63 3.583-.569 7.48 2.334 9.345 24.67 17.387 45.411 17.56 66.315 17.731 21.272.174 42.735.35 68.92 22.597l-.016.018c3.084 2.62 7.96 1.97 10.888-1.452a8.88 8.88 0 0 0 1.574-2.643l16.149-35.472-147.397-51.304z" style="fill:#d84315"/><path d="M1461.88 950.876c1.29 36.194-8.013 71.457-25.12 102.474-16.76 30.391-41.031 56.679-70.18 75.742l.388 10.907c.16 4.486-3.333 8.642-7.802 9.283l-72.816 10.444-72.816 10.445c-4.468.64-8.22-2.476-8.38-6.962l-.388-10.907c-30.205-10.55-56.092-29.644-74.836-54.94-19.133-25.82-30.841-58.07-32.13-94.262-.16-4.486 3.333-8.642 7.801-9.283l347.9-49.9c4.467-.642 8.22 2.475 8.38 6.96z" style="fill:#ffb300;fill-rule:nonzero"/><path d="m1286.35 1159.73-5.84-163.904-.96-26.956-6.19.888-167.759 24.062c-4.468.642-7.962 4.798-7.801 9.284 1.289 36.192 12.997 68.441 32.13 94.261 18.744 25.297 44.631 44.391 74.836 54.94l.388 10.908c.16 4.486 3.912 7.603 8.38 6.962l72.816-10.445z" style="fill:#ffb300"/><path d="M1366.58 1129.09c29.15-19.063 53.42-45.35 70.18-75.742 17.108-31.017 26.41-66.28 25.12-102.474-.159-4.484-3.91-7.601-8.379-6.96l-53.984 7.742-34.823 4.996-39.375 5.647-45.767 6.565.96 26.956 5.84 163.904 72.815-10.445c4.469-.64 7.961-4.796 7.802-9.282l-.389-10.907z" style="fill:#ffa000"/><path d="m1286.35 1159.73-.678-19.02-80.907 11.605.389 10.898c.16 4.486 3.912 7.603 8.38 6.961l72.816-10.444z" style="fill:#ffa100"/><path d="m1285.68 1140.7.678 19.02 72.816-10.444c4.468-.64 7.96-4.796 7.801-9.282l-.388-10.898-80.907 11.604z" style="fill:#ff9300"/></g></svg>
