<svg xmlns="http://www.w3.org/2000/svg" xml:space="preserve" width="655.359" height="655.359" style="shape-rendering:geometricPrecision;text-rendering:geometricPrecision;image-rendering:optimizeQuality;fill-rule:evenodd;clip-rule:evenodd" viewBox="0 0 6.827 6.827"><defs><clipPath id="id0"><path d="M3.413 0a3.413 3.413 0 1 1 0 6.827 3.413 3.413 0 0 1 0-6.827z"/></clipPath><style>.fil5{fill:#006064}.fil4{fill:#0097a7}.fil11{fill:#1b1b1b}.fil12{fill:#37474f}.fil1{fill:#c2185b}.fil7{fill:#f6c4aa}.fil6{fill:#fdc}</style></defs><g id="Layer_x0020_1"><path d="M3.413 0a3.413 3.413 0 1 1 0 6.827 3.413 3.413 0 0 1 0-6.827z" style="fill:#ec407a"/><g style="clip-path:url(#id0)"><g id="_435568960"><path id="_4936550401" class="fil1" d="m3.643 2.962 3.786 3.786-.003.012-.003.012-.002.012-.003.012-.003.011-.003.012-.003.01-.003.011-.003.01-.003.011-.003.01-.003.01-.003.009-.003.01-.003.008-.003.008-.003.009-.003.008-.002.007-.003.007-.003.007-.003.007-.002.006-.003.006-.002.005-.002.005-.003.005-.002.004-.002.004L7.347 7l-.002.003-.002.003-3.786-3.787.002-.002.002-.003.002-.004.002-.004.002-.004.002-.005.003-.005.002-.005.003-.006.002-.006.003-.007.003-.007.002-.007.003-.008.003-.008.003-.008.003-.008.003-.01.003-.008.003-.01.003-.01.003-.01.003-.01.003-.01.003-.01.003-.012.003-.01.003-.012.002-.012.003-.012.003-.012z"/><path id="_493654536" class="fil1" d="M5.351 8.672zM1.565 4.885z"/><path id="_493656096" class="fil1" d="M5.37 8.582zM1.583 4.795z"/><path id="_493657056" class="fil1" d="M5.412 8.383zM1.626 4.596z"/><path id="_493657008" class="fil1" d="M5.424 8.331zM1.638 4.545z"/><path id="_493656888" class="fil1" d="M5.484 8.126zM1.698 4.339z"/><path id="_493657320" class="fil1" d="M5.681 7.878zM1.895 4.092z"/><path id="_493656720" class="fil1" d="M5.71 7.86zM1.922 4.072z"/><path id="_493657368" class="fil1" d="M3.772 2.386 7.56 6.172l-.001.006-.002.007v.006l-.002.006-.002.007-.002.006-.001.006-.002.006-.003.007-.002.006-.002.006-.003.006-.002.006-.003.006-.003.006-.003.006-.003.006-.003.006-.003.006-.004.006-.003.006-.004.005-.004.006-.004.006-.004.006-.004.005-.004.006-.004.005-.005.006-.005.005-.004.006-.005.005-3.786-3.786.005-.005.004-.006.005-.005.004-.006.005-.005.004-.006.004-.006.004-.005.004-.006.004-.006.003-.006.004-.005.003-.006.004-.006.003-.006.003-.006.003-.006.003-.006.003-.006.002-.006.003-.006.002-.006.002-.007.002-.006.002-.006.002-.006.002-.007.001-.006.002-.006.001-.007.001-.006z"/><path id="_493657392" class="fil1" d="m3.677 2.576 3.786 3.786V6.371l-.001.003v.006l-.001.003v.002L3.673 2.6v-.005l.001-.003v-.006l.001-.003v-.003z"/><path id="_493657104" class="fil1" d="M3.674 2.599 7.46 6.385v.007l.001.003V6.42l.001.004v.016L3.676 2.653V2.62l-.001-.003v-.014z"/><path id="_493657128" class="fil1" d="M3.786 2.645 7.572 6.43l.004.004.004.005.003.005.003.005.002.005.003.006.002.006.002.006.002.006.002.007v.007l.002.007v.007l.001.008v.031l-.001.009-.001.008-.001.008-.002.009-.002.008-.002.009-.002.009-.003.008-3.786-3.786.002-.009.003-.008.002-.009.002-.008.001-.009.002-.008v-.009l.002-.008v-.039l-.001-.007-.001-.007-.002-.007-.001-.007-.002-.006-.002-.007-.002-.006-.003-.005-.003-.006-.003-.005-.003-.005-.003-.004z"/><path id="_493657152" class="fil1" d="m3.802 2.828 3.786 3.786-.003.009-.003.008-.004.009-.003.008-.004.007-.004.008-.004.007-.004.007-.005.007-.004.007-.005.006-.005.006-.005.006-.005.005-.005.005-.005.005-.005.004-.005.005-.006.003-.005.004-.005.003-.006.003-.005.002-.006.002-.005.001-.005.002h-.022l-.005-.001-.005-.001L3.65 2.964l.005.002h.005l.005.001h.016l.006-.002.005-.001.006-.002.005-.003.005-.002.006-.003.005-.004.005-.004.006-.004.005-.004.005-.005.005-.005.005-.006.005-.005.005-.006.004-.007.005-.006.004-.007.005-.007.004-.007.004-.008.003-.008.004-.008.003-.008.004-.008z"/><path id="_493657944" class="fil1" d="m3.649 2.964 3.786 3.787-.001-.001h-.002l-.002-.001h-.001L3.643 2.961h.002v.001h.002l.001.001z"/><path id="_493657800" class="fil1" d="M7.734 7.257zM3.947 3.471z"/><path id="_493658112" class="fil1" d="m3.557 3.22 3.786 3.786-.004.007-.005.007-.005.008-.006.008-.005.01-.006.008-.006.01-.007.01-.007.01-.007.01-.007.01-.007.011-.008.011-.008.011-.008.011-.009.012-.009.01-.01.012-.009.011-.01.011-.01.012-.01.01-.01.011-.011.011-.012.01-.011.01-.012.01-.012.01-.013.01-.013.009-.013.008-.013.009-3.787-3.787.014-.008.013-.008.013-.01.012-.009.013-.01.012-.01.011-.01.011-.01.011-.01.011-.012.01-.01.01-.012.01-.011.01-.011.009-.012.009-.01.008-.012.009-.011.008-.011.007-.011.008-.01.007-.011.007-.01.007-.01.006-.01.006-.01.006-.01.006-.008.005-.008.006-.008.005-.008z"/><path id="_493657968" class="fil1" d="M3.273 3.537 7.06 7.324v.085L3.273 3.623z"/><path id="_493657992" class="fil1" d="M3.704 1.994 7.49 5.781l.023.029.02.03.018.03.014.031.01.032.009.032.004.034.001.033-.002.034-.006.035-.009.035-.013.036-3.786-3.786.013-.036.01-.035.005-.035.002-.034-.001-.034-.005-.033-.007-.032-.011-.032-.015-.031-.017-.031-.02-.03z"/><path id="_493658160" class="fil1" d="m4.407 2.851 3.786 3.786-.002.005-.002.006-.002.005-.002.007-.002.006-.001.007-.002.008-.002.008-.002.008-.002.008-.002.009-.002.009-.002.009-.002.009-.002.01-.003.01-3.786-3.787.002-.01.002-.01.002-.009.002-.009.003-.009.001-.008.002-.009.002-.008.002-.007.002-.008.002-.007.002-.007.002-.006.002-.006.002-.005z"/><path id="_493657824" class="fil1" d="m3.773 2.386 3.786 3.786-3.787-3.786z"/><path id="_493657776" class="fil1" d="M4.335 3.138 8.12 6.924l-.002.008-.003.007-.002.007-.003.007-.002.007-.003.007-.002.007-.003.007-.003.007-.003.006-.002.007-.003.006-.003.006-.003.006-.004.006-.003.006-.003.005-.003.006-.004.005-.003.005-.004.005-.004.005-.003.005-.004.004-.004.005-.004.004-.004.003-.004.004-.004.004-.005.003-.004.003-.005.003L4.23 3.314l.005-.003.004-.003.004-.004.005-.003.004-.004.004-.004.004-.004.004-.004.003-.004.004-.005.004-.005.003-.005.004-.005.003-.005.004-.006.003-.005.003-.006.003-.006.003-.006.003-.006.003-.007.003-.006.003-.007.003-.006.002-.007.003-.007.003-.007.002-.007.003-.007.002-.007.002-.008z"/><path id="_493657680" class="fil1" d="M4.23 3.314 8.014 7.1V7.113l-.002.007v.008l-.001.007-.001.007-.001.008-.002.008v.008l-.002.007-.001.008-.002.008v.008L8 7.205 8 7.212l-.002.008-3.786-3.786.001-.008.002-.008v-.007l.002-.008.001-.008.002-.008V3.38l.002-.007.001-.008.001-.008.001-.007.001-.008.001-.007v-.007l.002-.007z"/><path id="_493657536" class="fil1" d="M4.212 3.434 7.998 7.22v.003L4.212 3.437z"/><path id="_493657560" class="fil1" d="m4.212 3.437 3.786 3.786-3.786-3.786z"/><path id="_493658880" class="fil1" d="m4.212 3.437 3.786 3.786v.003L4.21 3.44z"/><path id="_493658904" class="fil1" d="m4.211 3.44 3.786 3.786-3.786-3.785z"/><path id="_493658496" class="fil1" d="m4.21 3.44 3.787 3.787v.003L4.21 3.444z"/><path id="_493658520" class="fil1" d="M4.21 3.444 7.997 7.23 4.21 3.444z"/><path id="_493658568" class="fil1" d="M4.21 3.444 7.997 7.23v.003L4.21 3.447z"/><path id="_493658760" class="fil1" d="m4.21 3.447 3.786 3.786v.001L4.21 3.448z"/><path id="_493658592" class="fil1" d="m4.21 3.448 3.786 3.786v.003L4.209 3.45z"/><path id="_493658328" class="fil1" d="m4.21 3.45 3.786 3.787-3.787-3.786z"/><path id="_493658808" class="fil1" d="m4.21 3.451 3.785 3.787v.002L4.209 3.454z"/><path id="_493658832" class="fil1" d="M4.209 3.454 7.995 7.24v.001L4.208 3.455z"/><path id="_493659672" class="fil1" d="m4.208 3.455 3.787 3.786v.003L4.207 3.457z"/><path id="_493659360" class="fil1" d="m4.208 3.457 3.786 3.787v.001L4.208 3.459z"/><path id="_493659312" class="fil1" d="m4.208 3.459 3.786 3.786v.002L4.207 3.461z"/><path id="_493659192" class="fil1" d="m4.207 3.46 3.787 3.787v.002L4.206 3.462z"/><path id="_493659624" class="fil1" d="M4.207 3.462 7.993 7.25v.002L4.207 3.464z"/><path id="_493659024" class="fil1" d="m4.207 3.464 3.786 3.787v.001L4.206 3.466z"/><path id="_493659696" class="fil1" d="m4.206 3.466 3.787 3.786v.002L4.205 3.468z"/><path id="_493659456" class="fil1" d="m4.206 3.468 3.786 3.786v.002L4.206 3.47z"/><path id="_493659528" class="fil1" d="m4.206 3.47 3.786 3.786v.002L4.206 3.47z"/><path id="_493659096" class="fil1" d="m4.206 3.471 3.786 3.787v.002L4.204 3.474z"/><path id="_493659216" class="fil1" d="M4.205 3.474 7.991 7.26v.001L4.205 3.475z"/><path id="_493660464" class="fil1" d="M4.205 3.475 7.99 7.26v.003L4.204 3.477z"/><path id="_493660200" class="fil1" d="m4.204 3.477 3.787 3.787-3.787-3.786z"/><path id="_493660176" class="fil1" d="M4.204 3.478 7.99 7.265v.002L4.204 3.481z"/><path id="_493659984" class="fil1" d="M4.204 3.481 7.99 7.267v.001L4.204 3.482z"/><path id="_493660008" class="fil1" d="M4.204 3.482 7.99 7.268v.003L4.202 3.485z"/><path id="_493660344" class="fil1" d="m4.203 3.485 3.786 3.786-3.786-3.785z"/><path id="_493660248" class="fil1" d="m4.203 3.486 3.786 3.786v.003L4.202 3.49z"/><path id="_493659888" class="fil1" d="M4.202 3.489 7.99 7.275 4.201 3.49z"/><path id="_493660272" class="fil1" d="m4.202 3.49 3.786 3.786v.003L4.2 3.493z"/><path id="_493659936" class="fil1" d="m4.202 3.493 3.786 3.786L4.2 3.493z"/><path id="_493659864" class="fil1" d="m4.201 3.493 3.787 3.786-.001.004-3.786-3.786z"/><path id="_493660848" class="fil1" d="m4.2 3.497 3.787 3.786-3.786-3.786z"/><path id="_493660800" class="fil1" d="m4.2 3.497 3.787 3.786v.004L4.2 3.5z"/><path id="_493661040" class="fil1" d="m4.2 3.5 3.786 3.787L4.2 3.5z"/><path id="_493661208" class="fil1" d="m4.2 3.5 3.786 3.787v.003L4.199 3.504z"/><path id="_493660512" class="fil1" d="M4.2 3.504 7.985 7.29 4.198 3.505z"/><path id="_493660584" class="fil1" d="m4.2 3.504 3.785 3.787v.003L4.199 3.508z"/><path id="_493660632" class="fil1" d="m4.199 3.508 3.786 3.786-3.787-3.786z"/><path id="_493660944" class="fil1" d="m4.198 3.508 3.787 3.787v.003L4.197 3.51z"/><path id="_493660752" class="fil1" d="m4.198 3.511 3.786 3.787-3.786-3.786z"/><path id="_493660776" class="fil1" d="M4.198 3.512 7.984 7.3V7.3L4.196 3.515z"/><path id="_493661520" class="fil1" d="m4.197 3.515 3.786 3.786v.002L4.197 3.516z"/><path id="_493661472" class="fil1" d="m4.197 3.516 3.786 3.787v.002L4.196 3.52z"/><path id="_493661376" class="fil1" d="m4.196 3.519 3.787 3.786v.002L4.195 3.52z"/><path id="_493661496" class="fil1" d="m4.196 3.52 3.786 3.787v.002L4.196 3.523z"/><path id="_493629192" class="fil1" d="m4.196 3.523 3.786 3.786v.002L4.194 3.524z"/><path id="_493629360" class="fil1" d="m4.195 3.524 3.786 3.787v.002L4.195 3.527z"/><path id="_493629408" class="fil1" d="M4.195 3.527 7.98 7.313v.002L4.194 3.528z"/><path id="_493629456" class="fil1" d="m4.194 3.528 3.787 3.787v.002L4.193 3.53z"/><path id="_493629504" class="fil1" d="M4.194 3.53 7.98 7.317v.002L4.194 3.532z"/><path id="_493629720" class="fil1" d="M4.194 3.532 7.98 7.32v.002L4.192 3.534z"/><path id="_493629600" class="fil1" d="M4.193 3.534 7.98 7.321v.002L4.193 3.536z"/><path id="_493629048" class="fil1" d="m4.193 3.536 3.786 3.787v.001L4.192 3.538z"/><path id="_493629120" class="fil1" d="M4.192 3.538 7.98 7.324v.003L4.191 3.54z"/><path id="_493629216" class="fil1" d="m4.192 3.54 3.786 3.787v.001L4.192 3.542z"/><path id="_493630032" class="fil1" d="m4.192 3.542 3.786 3.786v.003L4.19 3.545z"/><path id="_493630056" class="fil1" d="M4.19 3.545 7.978 7.33v.001L4.191 3.546z"/><path id="_493630392" class="fil1" d="m4.19 3.546 3.787 3.786v.003L4.19 3.55z"/><path id="_493630296" class="fil1" d="m4.19 3.549 3.786 3.786v.001L4.19 3.55z"/><path id="_493629936" class="fil1" d="m4.19 3.55 3.786 3.786v.003L4.188 3.553z"/><path id="_493630224" class="fil1" d="m4.19 3.553 3.785 3.786v.001L4.19 3.554z"/><path id="_493629984" class="fil1" d="M4.189 3.554 7.975 7.34v.003L4.188 3.557z"/><path id="_493630272" class="fil1" d="m4.188 3.557 3.787 3.786-3.787-3.785z"/><path id="_493630344" class="fil1" d="m4.188 3.558 3.786 3.786v.004L4.187 3.56z"/><path id="_493629816" class="fil1" d="m4.187 3.561 3.787 3.787-3.787-3.786z"/><path id="_493630008" class="fil1" d="m4.187 3.562 3.787 3.786-.001.004-3.787-3.786z"/><path id="_493631256" class="fil1" d="m4.186 3.566 3.787 3.786-3.787-3.786z"/><path id="_493631088" class="fil1" d="m4.186 3.566 3.787 3.786-.001.004L4.185 3.57z"/><path id="_493630560" class="fil1" d="m4.185 3.57 3.787 3.786-.001.004-3.786-3.786z"/><path id="_493631016" class="fil1" d="M4.185 3.574 7.97 7.36 4.185 3.574z"/><path id="_493630992" class="fil1" d="M4.185 3.574 7.97 7.36l-.001.004-3.786-3.786z"/><path id="_493630800" class="fil1" d="M4.184 3.578 7.97 7.364 4.184 3.579z"/><path id="_493630824" class="fil1" d="M4.184 3.578 7.97 7.365v.003L4.182 3.582z"/><path id="_493631232" class="fil1" d="m4.183 3.582 3.786 3.786-3.786-3.785z"/><path id="_493631136" class="fil1" d="m4.183 3.583 3.786 3.786v.003L4.181 3.586z"/><path id="_493630704" class="fil1" d="m4.182 3.586 3.786 3.786v.001L4.182 3.587z"/><path id="_493631760" class="fil1" d="m4.182 3.587 3.786 3.786v.003L4.18 3.59z"/><path id="_493631496" class="fil1" d="m4.181 3.59 3.786 3.786v.001L4.18 3.591z"/><path id="_493631664" class="fil1" d="m4.18 3.591 3.787 3.786v.003L4.18 3.594z"/><path id="_493631712" class="fil1" d="M4.18 3.594 7.966 7.38v.002L4.18 3.595z"/><path id="_493631880" class="fil1" d="m4.18 3.595 3.786 3.787-.001.004L4.179 3.6z"/><path id="_493631904" class="fil1" d="m4.179 3.6 3.786 3.786v.002L4.177 3.602z"/><path id="_493632048" class="fil1" d="m4.178 3.602 3.786 3.786v.002L4.178 3.604z"/><path id="_493631400" class="fil1" d="M4.178 3.604 7.964 7.39v.003L4.176 3.606z"/><path id="_493631472" class="fil1" d="m4.177 3.606 3.786 3.787v.002L4.177 3.609z"/><path id="_493631592" class="fil1" d="m4.177 3.609 3.786 3.786v.002L4.176 3.61z"/><path id="_493632528" class="fil1" d="m4.176 3.61 3.787 3.787-.001.002-3.786-3.786z"/><path id="_493632336" class="fil1" d="m4.176 3.613 3.786 3.786v.002L4.175 3.615z"/><path id="_493632360" class="fil1" d="M4.175 3.615 7.962 7.4l-.001.003-3.786-3.787z"/><path id="_493632696" class="fil1" d="M4.175 3.617 7.96 7.404v.001L4.174 3.619z"/><path id="_493632600" class="fil1" d="m4.174 3.619 3.787 3.786-.001.003-3.786-3.786z"/><path id="_493632240" class="fil1" d="M4.174 3.622 7.96 7.408v.001L4.173 3.623z"/><path id="_493632552" class="fil1" d="M4.173 3.623 7.96 7.409l-.001.004-3.787-3.787z"/><path id="_493632288" class="fil1" d="M4.172 3.626 7.96 7.413 4.172 3.627z"/><path id="_493632720" class="fil1" d="M4.172 3.627 7.96 7.413l-.001.004L4.17 3.631z"/><path id="_493632168" class="fil1" d="m4.171 3.63 3.787 3.787L4.17 3.632z"/><path id="_493633152" class="fil1" d="m4.171 3.631 3.787 3.787-.001.003L4.17 3.635z"/><path id="_493633368" class="fil1" d="m4.17 3.635 3.787 3.787L4.17 3.636z"/><path id="_493633560" class="fil1" d="m4.17 3.636 3.787 3.786-.001.004L4.169 3.64z"/><path id="_493633440" class="fil1" d="m4.17 3.64 3.786 3.786L4.168 3.64z"/><path id="_493632864" class="fil1" d="m4.17 3.64 3.785 3.786v.004L4.167 3.644z"/><path id="_493633320" class="fil1" d="M4.168 3.644 7.954 7.43 4.168 3.645z"/><path id="_493633200" class="fil1" d="m4.168 3.644 3.786 3.787v.004L4.166 3.648z"/><path id="_493632960" class="fil1" d="m4.167 3.648 3.786 3.787-3.786-3.786z"/><path id="_493633272" class="fil1" d="m4.167 3.649 3.786 3.786v.004L4.165 3.653z"/><path id="_493633032" class="fil1" d="m4.166 3.653 3.786 3.786-3.786-3.786z"/><path id="_493633128" class="fil1" d="M4.166 3.653 7.952 7.44v.003L4.164 3.657z"/><path id="_493634160" class="fil1" d="m4.165 3.657 3.786 3.786v.001L4.165 3.658z"/><path id="_493634304" class="fil1" d="M4.165 3.658 7.95 7.444v.004L4.163 3.66z"/><path id="_493633920" class="fil1" d="M4.164 3.661 7.95 7.448 4.164 3.663z"/><path id="_493633800" class="fil1" d="M4.164 3.662 7.95 7.45v.003L4.162 3.666z"/><path id="_493633656" class="fil1" d="m4.163 3.666 3.786 3.786v.001L4.163 3.667z"/><path id="_493634280" class="fil1" d="m4.163 3.667 3.786 3.786v.003L4.161 3.67z"/><path id="_493634112" class="fil1" d="m4.162 3.67 3.786 3.786v.002L4.16 3.672z"/><path id="_493633872" class="fil1" d="m4.161 3.672 3.787 3.786-.001.003-3.786-3.787z"/><path id="_493633944" class="fil1" d="m4.16 3.674 3.787 3.787v.002L4.16 3.676z"/><path id="_493634016" class="fil1" d="m4.16 3.676 3.786 3.787v.002L4.16 3.679z"/><path id="_493634544" class="fil1" d="m4.16 3.679 3.786 3.786v.002L4.158 3.681z"/><path id="_493643928" class="fil1" d="m4.159 3.68 3.786 3.787v.002L4.158 3.683z"/><path id="_492831944" class="fil1" d="M4.853 4.218 8.64 8.004l.019.02.018.018.017.02.017.019.017.018.017.02.016.018.016.02.015.018.015.019.015.018.014.019.014.019.014.018.013.018.013.018.012.019.012.017.011.018.011.018.011.018.01.017L5.17 4.625l-.01-.018-.01-.017-.012-.018-.011-.018-.012-.018-.013-.018L5.09 4.5l-.013-.018-.014-.019-.014-.018-.014-.019-.015-.019-.015-.018-.015-.02-.016-.018-.016-.019-.017-.019-.017-.019-.017-.019-.018-.019-.018-.019z"/><path id="_492832304" class="fil1" d="M5.17 4.625 8.956 8.41l.011.019.01.018.01.019.009.018.008.018.008.018.008.017.007.018.006.017.006.017.005.017.005.016.004.016.004.016.003.016.002.015.002.015.002.015v.042l-.002.013-.001.014-.003.012-.003.013-.003.011-.005.012-.005.011-.005.011-.007.01-.007.01-.007.01-3.786-3.787.007-.01.007-.009.006-.01.006-.011.005-.011.004-.012.004-.012.003-.012.002-.013.002-.013.001-.013V4.93l-.001-.015-.002-.015-.002-.016-.003-.015-.004-.016-.004-.016-.005-.017-.005-.016-.006-.017-.006-.017-.007-.018-.008-.017-.008-.018-.008-.018-.01-.019-.01-.018-.01-.019z"/><path id="_492832568" class="fil1" d="m5.232 5.098 3.786 3.787-.002.001v.001l-.002.002-.001.001-3.787-3.785v-.001h.001l.001-.002.002-.001V5.1z"/><path id="_492832472" class="fil1" d="M5.226 5.105 9.012 8.89l-.001.002-.001.001-.001.001v.001h-.002v.002L5.22 5.11h.001V5.11l.002-.001v-.002h.002v-.001z"/><path id="_492832232" class="fil1" d="m5.22 5.111 3.787 3.787-.009.01-.009.008-.01.008-.01.008-.01.007-.011.006-.011.006-.012.005-.013.005-.013.004-.013.004-.014.003-.014.002-.015.002-.015.001-.015.001h-.049l-.016-.002-.018-.002-.017-.002-.018-.003-.018-.003-.019-.004-.019-.005-.019-.005-.019-.005-.02-.006-.02-.006-.02-.007-.02-.008-3.786-3.786.02.007.02.007.02.007.02.006.02.005.018.005.019.004.018.004.019.004.018.003.017.002.017.002.017.001h.017l.016.001h.016l.015-.001.015-.001.015-.002.014-.003.014-.003.013-.003.013-.004.012-.005.012-.005.012-.006.01-.007.011-.007.01-.007.01-.008.009-.01z"/><path id="_492832592" class="fil1" d="M4.735 5.134 8.52 8.92l-.01-.003-.01-.004-.01-.004-.01-.005L8.47 8.9l-.01-.004-.011-.005-.01-.004-.011-.005-.01-.005-.011-.005-.011-.005-.01-.005-.012-.005-.01-.006-.011-.005-.011-.006-.011-.005-.011-.006-.012-.006-.01-.006-.012-.006-.011-.006-.011-.007-.011-.006-.012-.007-.011-.006-.011-.007-.012-.007-.011-.007-.012-.007-.011-.007-3.786-3.786.011.007.012.007.011.007.011.007.012.006.011.007.011.007.012.006.01.006.012.007.011.006.011.006.011.006.011.005.011.006.011.006.011.005.011.006.01.005.012.005.01.005.011.005.01.005.011.005.01.004.011.005.01.004.01.004.011.004.01.004.01.004z"/><path id="_492831968" class="fil1" d="m4.387 4.958 3.786 3.786.003.016L4.39 4.973z"/><path id="_492832040" class="fil1" d="M2.295 2.966 6.08 6.752h-.005l-.005.001h-.016l-.005-.001-.005-.002-.005-.001-.006-.003-.005-.002-.005-.003-.005-.003-.005-.004-.006-.004-.005-.004-.005-.004-.005-.005-3.786-3.786.005.005.005.004.005.004.005.004.006.004.005.003.005.003.005.002.005.002.006.002.005.001.005.001.005.001h.016z"/><path id="_492832616" class="fil1" d="M4.298 4.973 8.085 8.76h-.093L4.206 4.973z"/><path id="_492831992" class="fil1" d="M2.663 3.51 6.45 7.296l-.012-.008-.013-.009-.012-.009-.012-.009-.012-.009-.011-.01-.012-.01-.01-.009-.012-.01-.01-.01-3.787-3.786.01.01.012.01.011.01.011.01.012.009.012.009.012.01.012.008.013.009z"/><path id="_492832016" class="fil1" d="m2.616 3.586 3.786 3.786.003.003.002.003.003.003.003.003-3.786-3.787-.003-.002-.003-.003-.003-.003z"/><path id="_492833120" class="fil1" d="M3.949 4.973 7.735 8.76h-.138L3.81 4.973z"/><path id="_492833288" class="fil1" d="M3.81 4.973 7.598 8.76H7.57L3.785 4.973z"/><path id="_492833096" class="fil1" d="M3.785 4.973 7.57 8.76h-.023L3.762 4.973z"/><path id="_492832952" class="fil1" d="M3.762 4.973 7.548 8.76h-.07L3.692 4.973z"/><path id="_492832688" class="fil1" d="M3.692 4.973 7.478 8.76H7.46L3.673 4.973z"/><path id="_492832664" class="fil1" d="M3.673 4.973 7.46 8.76l-.029.063-3.786-3.787z"/><path id="_492833072" class="fil1" d="M3.465 4.973 7.25 8.76h-.03L3.436 4.973z"/><path id="_492833384" class="fil1" d="M3.56 4.975 7.347 8.76H7.25L3.465 4.975z"/><path id="_492833264" class="fil1" d="m3.581 5.061 3.787 3.786-.004-.002-.004-.002-.003-.002-.003-.003-3.787-3.786.003.002.004.003.003.002z"/><path id="_492833048" class="fil1" d="m3.645 5.036 3.786 3.787-.002.004-.003.004-.003.004-.003.003-.003.003-.004.003-.004.002-.005.002-.004.002h-.004l-.005.001H7.377l-.005-.002-.004-.002-3.786-3.786.004.002.005.001h.004l.005.001H3.61l.005-.002.004-.001.004-.002.004-.002.004-.003.004-.003.003-.003.003-.004.003-.004z"/><path id="_492834128" class="fil1" d="m3.582 5.061 3.786 3.786L3.58 5.061z"/><path id="_492833432" class="fil1" d="M3.435 4.973 7.222 8.76h-.164L3.27 4.973z"/><path id="_492833576" class="fil1" d="M3.271 4.973 7.058 8.76h-.093L3.179 4.973z"/><path id="_492834104" class="fil1" d="M3.179 4.973 6.965 8.76H6.8L3.015 4.973z"/><path id="_492833456" class="fil1" d="M3.015 4.973 6.8 8.76h-.046L2.968 4.973z"/><path id="_492833744" class="fil1" d="M2.968 4.973 6.755 8.76h-.047L2.922 4.973z"/><path id="_492833888" class="fil1" d="M2.922 4.973 6.708 8.76h-.164L2.758 4.973z"/><path id="_492834056" class="fil1" d="M2.758 4.973 6.544 8.76h-.093L2.665 4.973z"/><path id="_492833984" class="fil1" d="M2.665 4.973 6.451 8.76h-.163L2.5 4.973z"/><path id="_492833840" class="fil1" d="M2.501 4.973 6.288 8.76h-.016L2.486 4.973z"/><path id="_492834224" class="fil1" d="M2.486 4.973 6.272 8.76v.001L2.487 4.975z"/><path id="_492834200" class="fil1" d="M2.313 4.973 6.099 8.76h-.068L2.245 4.973z"/><path id="_492834608" class="fil1" d="M2.486 4.975 6.273 8.76h-.174L2.313 4.975z"/><path id="_492834896" class="fil1" d="M2.245 4.973 6.03 8.76h-.07L2.175 4.973z"/><path id="_492834776" class="fil1" d="M2.175 4.973 5.96 8.76h-.023L2.152 4.973z"/><path id="_492834560" class="fil1" d="M2.152 4.973 5.938 8.76h-.026L2.126 4.973z"/><path id="_492834920" class="fil1" d="M2.126 4.973 5.912 8.76h-.138L1.988 4.973z"/><path id="_492834272" class="fil1" d="M1.988 4.973 5.774 8.76h-.093L1.895 4.973z"/><path id="_492834584" class="fil1" d="M1.895 4.973 5.68 8.76h-.164L1.731 4.973z"/><path id="_492834680" class="fil1" d="M1.731 4.973 5.517 8.76h-.093L1.638 4.973z"/><path id="_492835712" class="fil1" d="M1.638 4.973 5.424 8.76h-.091L1.547 4.973z"/><path id="_492835184" class="fil1" d="M4.042 4.973 7.828 8.76h-.093L3.95 4.973z"/><path id="_492835424" class="fil1" d="M4.206 4.973 7.992 8.76h-.164L4.042 4.973z"/><path id="_492835592" class="fil1" d="M4.39 4.973 8.176 8.76h-.091L4.298 4.973z"/><path id="_492835400" class="fil1" d="M4.438 2.774 8.224 6.56l-.031.077-3.786-3.786z"/><path id="_492835328" class="fil1" d="M4.375 2.974 8.161 6.76v.005l-.002.005v.005l-.002.005-.001.005-.001.005-.001.005-.001.006-.002.005v.005l-.002.005-.001.005-.001.006-.002.005v.005l-.002.005-.001.005-.002.006v.005l-.002.005-.001.005-.002.005-.001.006-.001.005-.002.005-.001.005-.002.005-.001.005-.002.005-.001.005-.002.005-.001.005-3.786-3.786.001-.005.002-.005.001-.005.002-.005.001-.005.002-.005v-.005l.002-.006.002-.005.001-.005.001-.005.002-.005V3.07l.002-.005.002-.005v-.005l.002-.005.001-.006.001-.005.002-.005V3.03l.002-.005.001-.005.001-.006.001-.005.002-.005V3l.002-.005v-.005l.002-.005.001-.005z"/><path id="_435568480" class="fil1" d="M3.947 3.47zM1.565 4.886zm.018-.09zm.043-.199zm.012-.051zm.06-.206zm.197-.247zm.028-.02zm1.85-1.686a.37.37 0 0 1-.096.19.397.397 0 0 1-.003.023l.002.054c.027-.024.057-.034.084-.025.053.017.072.107.042.2-.031.093-.1.154-.153.136a.06.06 0 0 1-.006-.002.98.98 0 0 1-.086.257c-.048.072-.138.233-.284.318v.086a.232.232 0 0 0 .08-.072c.071-.02.127-.013.164.025.08-.058.21-.059.367-.01a.755.755 0 0 1 .023.007v-.001l.002-.004v-.002l.001-.001.002-.004v-.004l.004-.009.001-.001v-.003l.001-.001.003-.006v-.001l.002-.004V3.53l.001-.001.001-.004.001-.001v-.001l.003-.006v-.002l.002-.005V3.51l.001-.001v-.001h.001l.002-.007.001-.002v-.001l.001-.002.002-.004.001-.003.002-.004v-.002l.001-.001.003-.007.001-.003.001-.003.003-.006.002-.004v-.003h.001l.001-.004.001-.001v-.001l.003-.006v-.001l.001-.002.002-.003v-.001l.002-.005V3.43l.002-.004v-.001l.001-.001.001-.002V3.42l.001-.001v-.001h.001l.002-.005v-.001l.002-.004.001-.002.002-.004V3.4l.001-.001.001-.002v-.001l.001-.002.002-.003.001-.003.001-.003.002-.003.001-.003.001-.002.002-.003V3.37c.022-.045.051-.097.072-.13A.254.254 0 0 1 4.07 3.1a.573.573 0 0 1 .077-.154c.056-.082.134-.15.209-.16l.082-.012-.031.077c-.01.025-.02.07-.032.123-.011.053-.024.111-.04.164-.025.08-.057.147-.106.176-.002.034-.01.08-.017.12v.003l-.001.003v.004l-.001.003v.004l-.001.003v.001l-.001.002v.005l-.001.002v.004l-.001.002v.004h-.001v.004l-.001.003v.001l-.001.003v.004l-.002.004v.004L4.2 3.5v.004l-.001.004-.001.003v.001l-.001.003v.004l-.001.001v.004l-.001.003v.001l-.001.002v.004l-.001.002v.002l-.001.003v.001l-.001.003v.004H4.19v.004h-.001v.004l-.002.004v.005l-.002.004v.004l-.001.004-.001.004-.001.004-.001.004v.004l-.001.001-.001.005v.002l-.001.002v.002l-.001.003v.001l-.001.003v.002l-.001.002v.002l-.001.003-.002.004v.005l-.002.004v.005l-.002.004v.004h-.001v.005h-.001l-.001.004-.001.004v.001l-.001.004v.001l-.001.003v.002l-.001.002v.002l-.001.003-.001.002v.002c.032.018.061.034.084.049.124.073.253.165.38.272l.006.005.007.006.006.005.011.01c.23.198.41.41.517.595.116.2.146.375.062.473a.184.184 0 0 1-.012.013c-.087.103-.267.104-.485.023-.108-.04-.226-.1-.348-.176l.003.015h-.717l-.028.063a.049.049 0 0 1-.063.025.048.048 0 0 1-.027-.055l.001-.01.002-.009.002-.009v-.003h-.095v-.002H2.486v.002h-.173v-.002h-.766l.018-.088.002-.01v-.004l.001-.001v-.003l.001-.002v-.004l.002-.003v-.002l.012-.06v-.002l.036-.165v-.005l.001-.001.001-.006v-.001l.001-.004v-.001l.001-.002v-.002l.001-.002v-.002l.002-.005v-.005l.001-.001v-.003l.001-.001v-.003l.001-.002V4.58l.001-.001v-.003l.001-.002v-.002l.001-.002v-.003l.001-.001v-.003l.001-.002V4.56l.001-.001v-.004l.001-.001V4.55l.001-.001v-.002l.001-.001v-.001l.007-.026v-.001l.003-.013v-.003l.003-.01.002-.004.002-.008.002-.007v-.005l.004-.01.001-.005.025-.081V4.37l.001-.003v-.001l.001-.002v-.002l.001-.001v-.002l.001-.001v-.001l.004-.008v-.003l.002-.005v-.002h.001v-.003l.001-.001v-.001H1.7v-.002l.001-.002v-.001l.001-.002.001-.002.001-.003.001-.003.001-.003.001-.002.001-.002V4.31l.001-.001a.37.37 0 0 1 .084-.138c.021-.019.053-.045.102-.079l.002-.002H1.9l.006-.005h.001l.008-.006h.001l.008-.006.009-.006h.001l.007-.005.002-.001.001-.001.008-.005.001-.001.002-.001.004-.003h.002l.001-.002h.002l.001-.002V4.04c.01-.146.056-.192.243-.203-.011-.095.026-.138.137-.106-.01-.16.133-.22.272-.145a.33.33 0 0 0 .047.041V3.51a1.082 1.082 0 0 1-.284-.29.972.972 0 0 1-.084-.254c-.053.012-.119-.048-.148-.138-.03-.093-.012-.183.042-.2.022-.008.048-.001.072.016v-.061a.397.397 0 0 1-.091-.149c-.178-.151.066-.835.579-.798.704.05 1.182.368 1.024.75z"/></g></g><path d="M3.413 0a3.413 3.413 0 1 1 0 6.827 3.413 3.413 0 0 1 0-6.827z" style="fill:none"/><path d="M2.684 3.683c-.628.276-.817.423-.891.488-.115.102-.179.48-.246.802H4.39c-.068-.321-.131-.7-.246-.802-.075-.065-.256-.209-.885-.484l-.575-.004z" style="fill:#00acc1"/><path class="fil4" d="M2.245 3.89v1.083h-.093V3.938l.093-.048zm.44-.207-.02.009v1.281h.093v-1.29h-.074zm-.184.082-.093.044v1.164h.093V3.765zm-.513.267a1.939 1.939 0 0 0-.093.06v.881h.093v-.941zm-.257.228a1.472 1.472 0 0 0-.093.285v.428h.093V4.26zm1.19.713h.094V3.685h-.093v1.288zm.258 0h.092v-1.28l-.012-.006h-.08v1.286zm.256 0h.093V3.81a9.061 9.061 0 0 0-.093-.043v1.207zm.257 0h.093V3.938a5.009 5.009 0 0 0-.093-.048v1.083zm.257 0h.093v-.881a1.907 1.907 0 0 0-.093-.06v.941zm.257 0h.092v-.428a1.47 1.47 0 0 0-.092-.285v.713z"/><path class="fil4" d="M1.722 4.28h2.493a.973.973 0 0 1 .035.092H1.687a.973.973 0 0 1 .035-.093zM1.64 4.536h2.656l.022.093h-2.7l.022-.093zM1.584 4.793h2.769l.019.092H1.565l.019-.092z"/><path class="fil5" d="M1.722 4.28h.009v.092h-.044l.003-.011.002-.005.003-.007v-.002l.002-.006v-.002l.002-.004.002-.004v-.002l.001-.001.001-.003v-.002l.001-.001.001-.002v-.001l.001-.002v-.001h.001v-.003l.001-.001V4.31l.001-.001.001-.002.001-.002v-.002l.001-.001V4.3l.001-.001.001-.002v-.002l.001-.001v-.001l.001-.002v-.001l.001-.001.001-.002v-.001l.001-.001v-.001l.001-.002v-.001l.001-.001.001-.002zm.173 0h.093v.092h-.093v-.093zm.257 0h.093v.092h-.093v-.093zm.256 0h.093v.092h-.093v-.093zm.257 0h.093v.092h-.093v-.093zm.257 0h.093v.092h-.093v-.093zm.257 0h.092v.092H3.18v-.093zm.256 0h.093v.092h-.093v-.093zm.257 0h.093v.092h-.093v-.093zm.257 0h.093v.092h-.093v-.093zm.257 0h.009v.001l.001.002v.001h.001v.002l.001.001v.001l.001.002v.001l.001.001v.002l.001.001.001.001v.002l.001.001v.002h.001v.002h.001v.002l.001.001v.001l.001.002v.001l.001.001v.002l.001.002.001.001v.001l.001.002v.001l.001.002v.001l.001.002.001.002.001.002v.002l.001.001.001.003v.001l.001.002v.001l.001.002.001.003.002.003v.003l.001.002.002.004.001.005.001.003v.001l.001.002.001.002v.001l.001.002h-.044v-.093zM1.64 4.536h.091v.093h-.093V4.543l.001-.002v-.002l.001-.002v-.001zm.255 0h.093v.093h-.093v-.093zm.257 0h.093v.093h-.093v-.093zm.256 0h.093v.093h-.093v-.093zm.257 0h.093v.093h-.093v-.093zm.257 0h.093v.093h-.093v-.093zm.257 0h.092v.093H3.18v-.093zm.256 0h.093v.093h-.093v-.093zm.257 0h.093v.093h-.093v-.093zm.257 0h.093v.093h-.093v-.093zm.257 0h.09v.003h.001v.002l.001.002V4.629h-.092v-.093zM1.638 4.793h.093v.092h-.093v-.092zm.257 0h.093v.092h-.093v-.092zm.257 0h.093v.092h-.093v-.092zm.256 0h.093v.092h-.093v-.092zm.257 0h.093v.092h-.093v-.092zm.257 0h.093v.092h-.093v-.092zm.257 0h.092v.092H3.18v-.092zm.256 0h.093v.092h-.093v-.092zm.257 0h.093v.092h-.093v-.092zm.257 0h.093v.092h-.093v-.092zm.257 0h.092v.092h-.092v-.092z"/><path class="fil4" d="M2.126 4.973h.049l-.002-.372s-.022.162-.047.372zM3.81 4.973h-.048l.002-.372s.022.162.047.372z"/><path class="fil6" d="M3.273 3.134v.697c-.167.205-.442.198-.61 0v-.697c0-.376.61-.376.61 0z"/><path class="fil7" d="M3.273 3.203v.466c-.115.084-.226.132-.305.132-.078 0-.19-.048-.305-.132v-.466c0-.376.61-.376.61 0z"/><path d="m3.773 2.386-.265.03c.02.206-.151.346-.236.346H2.66c-.085 0-.256-.14-.236-.346l-.25.021c-.186-.145.058-.838.575-.801.704.05 1.182.368 1.024.75z" style="fill:#fb8c00"/><path d="M2.965 2.834c.447 0 .81-.222.81-.494s-.363-.494-.81-.494c-.446 0-.81.222-.81.494s.364.494.81.494z" style="fill:#f57c00"/><path class="fil6" d="M2.968 1.99c-1.024 0-.655 1.13-.589 1.23.069.1.265.356.513.372.027.001.116-.003.144 0 .292.027.45-.268.521-.373.067-.098.435-1.23-.589-1.23z"/><path class="fil7" d="M2.642 3.16c.218.057.471.048.657 0-.06.201-.54.206-.657 0z"/><path d="M3.618 2.499c-.002-.124-.133-.354-.219-.392-.086-.037-.519.01-.743.134-.242.135-.343.285-.338.407.004.085-.033.033-.056.025-.005-.127.001-.386.036-.5.036-.124.354-.198.697-.193.343.005.473.054.593.126.084.05.127.577.052.55-.029-.011-.02-.086-.022-.157z" style="fill:#212121"/><path class="fil6" d="M2.189 2.628c.053-.018.122.043.152.136.03.093.012.183-.042.2-.053.018-.122-.043-.152-.136-.03-.093-.012-.183.042-.2zM3.76 2.628c-.054-.018-.122.043-.153.136-.03.093-.012.183.042.2.054.018.122-.043.153-.136.03-.093.011-.183-.042-.2z"/><path class="fil11" transform="matrix(3.62025 0 .3069 3.62025 2.234 4.047)" d="M0 0h.048v.256H0z"/><path class="fil11" transform="matrix(-3.62025 0 -.3069 3.62025 3.717 4.047)" d="M0 0h.048v.256H0z"/><path class="fil12" d="M2.333 3.834c-.295 0-.356.032-.369.206a.867.867 0 0 0 .206.624c.185.227.086-.033.11-.217.025-.184.062.26.148.054.086-.206-.009-.158-.095-.667zM3.801 3.913c.134 0 .3.068.182.216-.119.149-.182.489-.19.63-.008.143-.095.242-.095.124 0-.117-.11-.39-.142-.272-.031.118-.15.235-.134.013.016-.223.079-.835.38-.711z"/><path class="fil12" d="M3.782 3.963c-.256.277-1.036.649-1.547-.011-.056-.172-.04-.264.109-.221-.01-.16.133-.22.272-.145.202.213.652.104.738-.035.131-.036.213.017.213.198.267-.127.321.076.215.214z"/><path d="M3.69 4.23v-.092a.325.325 0 0 1 .137-.116.813.813 0 0 0-.137.208zm0-.13a.3.3 0 0 0 .113-.164.397.397 0 0 1-.113.116V4.1zm0-.048V4.1a.255.255 0 0 1-.149.057v-.01c.04-.023.097-.056.15-.095zm0 .086a.515.515 0 0 0-.106.385c.02-.1.062-.204.106-.293v-.092zm-.149-.368v-.004a.719.719 0 0 1 0 .003zm-1.267.784a.54.54 0 0 1-.027-.055v.028a.33.33 0 0 0 .027.027zm1.267-.788v.004c-.215.215-.708.432-1.14 0 .44.356.93.157 1.14-.004zm0 .381-.014.009.014.001v-.01zm-1.294-.12v-.059a.82.82 0 0 0 .131.134.178.178 0 0 1-.13-.076zm0 .472c-.08-.186-.115-.494-.089-.542-.082.063-.062.403.09.57V4.5zm0-.53v.057a.153.153 0 0 1-.026-.099.317.317 0 0 0 .026.041z" style="fill:#263238"/><path d="M4.642 4.02c.235.2.418.419.525.608.114.203.141.38.053.483-.087.103-.267.104-.485.023a2.395 2.395 0 0 1-.683-.424c-.115-.098-.136-.15-.103-.189.024-.028.06-.027.105-.027.042 0 .096 0 .115-.021.042-.05.004-.112-.07-.179a4.568 4.568 0 0 0-.384-.27 1.757 1.757 0 0 1-.155-.115c-.114-.098-.168-.194-.086-.29.077-.09.224-.102.407-.049.123.033.28.113.361.163.13.076.267.173.4.287z" style="fill:#fb0;fill-rule:nonzero"/><path d="M4.642 4.02c.235.2.42.417.528.605.116.2.146.375.062.473-.085.1-.261.097-.478.014a2.48 2.48 0 0 1-.68-.428c-.115-.098-.136-.15-.105-.187.023-.026.06-.025.104-.024.04 0 .094.002.112-.019.04-.047.002-.109-.072-.176a4.74 4.74 0 0 0-.383-.272 1.824 1.824 0 0 1-.155-.115c-.114-.097-.17-.193-.09-.285.074-.087.219-.096.4-.04.121.034.278.116.358.166.13.077.266.174.399.288z" style="fill:#ffe57f;fill-rule:nonzero"/><path d="M4.379 3.946c.084.072.13.156.102.188-.027.033-.118 0-.202-.071-.084-.072-.13-.157-.102-.189.028-.032.118 0 .202.072z" style="fill:#ffd600"/><path d="M4.76 4.25c.081.068.122.153.091.188-.03.036-.12.01-.2-.06-.081-.068-.121-.153-.091-.188.03-.036.12-.01.2.06z" style="fill:#00c853"/><path d="M4.623 4.706c.08.068.124.149.098.18-.026.03-.113 0-.193-.07-.08-.068-.124-.149-.098-.18.026-.03.112.001.193.07z" style="fill:#d50000"/><path d="M4.994 4.64c.08.069.12.153.09.189-.03.036-.12.009-.2-.06-.081-.069-.122-.153-.091-.189.03-.036.12-.009.2.06z" style="fill:#ff6d00"/><path d="M4.23 3.299c-.001.035-.01.089-.018.135-.02.126-.062.296-.119.481l-.003.01a6.709 6.709 0 0 1-.206.562c-.078.189-.16.372-.239.55a.049.049 0 0 1-.064.024.048.048 0 0 1-.026-.055c.034-.194.07-.392.112-.583a6.72 6.72 0 0 1 .148-.58c.058-.187.12-.354.176-.472.022-.046.052-.101.074-.133.052.064.07.087.165.06z" style="fill:#fdcc92;fill-rule:nonzero"/><path d="M4.065 3.238a1.126 1.126 0 0 0-.074.133 2.98 2.98 0 0 0-.111.276.414.414 0 0 0 .265.089 4.424 4.424 0 0 0 .067-.302c.008-.046.017-.1.018-.135a.112.112 0 0 1-.095.01l-.005-.002a.118.118 0 0 1-.065-.07z" style="fill:#bdbdbd"/><path d="M3.582 5.061a.048.048 0 0 1-.027-.055c.034-.194.07-.392.112-.583a6.72 6.72 0 0 1 .148-.58c.058-.187.12-.354.176-.472.022-.046.052-.101.074-.133.031.039.05.063.082.07L3.582 5.06z" style="fill:#e7bb87;fill-rule:nonzero"/><path d="M4.065 3.238a1.126 1.126 0 0 0-.074.133 2.98 2.98 0 0 0-.111.276.4.4 0 0 0 .135.07l.13-.405a.157.157 0 0 1-.01-.003l-.005-.002a.118.118 0 0 1-.065-.07z" style="fill:#adadad"/><path d="M4.335 3.138c-.038.121-.095.216-.199.185l-.005-.002a.118.118 0 0 1-.065-.07.241.241 0 0 1 .004-.151.573.573 0 0 1 .077-.154c.056-.082.134-.15.209-.16l.082-.012-.031.077c-.01.025-.02.07-.032.123-.011.053-.024.111-.04.164z" style="fill:#795548;fill-rule:nonzero"/></g></svg>
