<svg xmlns="http://www.w3.org/2000/svg" xml:space="preserve" width="655.359" height="655.359" style="shape-rendering:geometricPrecision;text-rendering:geometricPrecision;image-rendering:optimizeQuality;fill-rule:evenodd;clip-rule:evenodd" viewBox="0 0 6.827 6.827"><defs><clipPath id="id0"><path d="M3.413 0a3.413 3.413 0 1 1 0 6.827 3.413 3.413 0 0 1 0-6.827z"/></clipPath><style>.fil3{fill:#424242}.fil1{fill:#4e342e}.fil9{fill:#6690b5}.fil4{fill:#e6a875}.fil7{fill:#fff}.fil11{fill:#039be5;fill-rule:nonzero}</style></defs><g id="Layer_x0020_1"><path d="M3.413 0a3.413 3.413 0 1 1 0 6.827 3.413 3.413 0 0 1 0-6.827z" style="fill:#6d4c41"/><g style="clip-path:url(#id0)"><g id="_435566752"><path id="_4312195521" class="fil1" d="m1.742 2.726 3.786 3.786-.006.002-.006.002H5.51l-.006.002h-.031l-.006-.002h-.006l-.005-.002-.006-.002-.006-.002-.005-.003-.006-.002-.005-.003-.005-.003-.005-.004-.005-.003-.005-.004-.004-.004-3.786-3.786.004.004.005.004.005.003.005.004.005.003.005.002.005.003.006.002.006.002.005.002.006.002.006.001.006.001h.006l.006.001H1.717l.007-.001.006-.002.006-.001z"/><path id="_431219984" class="fil1" d="M2.712 2.515 6.498 6.3l-.928.3-3.786-3.786z"/><path id="_431220608" class="fil1" d="M3.762 2.174 7.55 5.96l-.926.3-3.786-3.786z"/><path id="_431220128" class="fil1" d="M2.837 2.474 6.623 6.26l.596 1.795L3.433 4.27z"/><path id="_431220080" class="fil1" d="m3.615 1.627 3.786 3.786.068.209-3.786-3.786z"/><path id="_431220272" class="fil1" d="M3.786 1.802 7.572 5.59l.038.118-3.786-3.786z"/><path id="_431221568" class="fil1" d="M3.824 1.92 7.61 5.708l.002.007.002.007.002.007v.007l.001.006v.02l-.002.006v.006l-.002.006-.002.006-.002.006-.003.005-.003.006-.003.005-.003.005-.004.005-.004.005-.004.005-.004.004-.005.005-.005.004-.005.004-.005.003-.005.004-.006.003-.006.003-.006.003-.006.003-.007.003-.006.002-3.787-3.786.007-.003.006-.002.007-.003.006-.003.006-.003.005-.003.006-.004.005-.004.005-.004.005-.004.005-.004.004-.005.004-.004.004-.005.004-.005.003-.005.003-.005.003-.006.002-.006L3.825 2l.001-.006.002-.006.001-.006.001-.007v-.032l-.002-.007-.002-.007z"/><path id="_431221448" class="fil1" d="M3.732 2.082 7.52 5.868l.03.092-3.787-3.786z"/><path id="_431220848" class="fil1" d="m4.563 3.693 3.786 3.786-.003.005-.004.005-.004.005-.005.006-.005.006-.005.005-.005.007-.006.006-.006.006-.007.007-.007.007-.007.006-.007.007-.007.008-.008.007-.008.007-.008.007-.009.008-.008.007-.009.008-.009.007-.01.008-.008.008-.01.007-.01.008-.009.007-.01.008-.01.007-.01.008-.01.007-.01.007-.01.007L4.32 3.912l.01-.007.01-.007.01-.008.01-.007.01-.008.01-.007.01-.008.009-.007.01-.008.009-.007.009-.008.009-.007.009-.008.008-.007.009-.008.008-.007.008-.008.007-.007.008-.007.007-.007.007-.007.007-.006.006-.007.007-.006.005-.007.006-.006.005-.006.005-.005.005-.006.004-.005.004-.005z"/><path id="_431221496" class="fil1" d="M3.584 3.733 7.37 7.519l-.01-.001-.009-.003-.01-.002-.008-.003-.01-.004-.008-.003-.008-.004-.008-.005-.008-.005-.008-.005-.007-.005-.008-.006-.006-.006-.007-.006-3.786-3.787.006.007.007.006.007.006.008.005.008.005.007.005.009.004.008.004.009.004.009.004.009.003.009.002.01.002z"/><path id="_431220944" class="fil1" d="m3.407 3.523 3.787 3.786-.007-.003-.006-.004-.007-.003-.006-.004-.006-.004-.006-.005-.006-.004-.005-.005-.006-.005-.005-.005-3.786-3.786.005.005.005.005.006.005.006.004.006.004.006.005.006.003.006.004.007.004z"/><path id="_431220872" class="fil1" d="M3.794 3.912 7.58 7.698l-.007-.005-.008-.006-.008-.005-.008-.006-.007-.006-.008-.006-.008-.005-.007-.006-.007-.006-.008-.006-.007-.006-.007-.006-.008-.005-.007-.006-.006-.006-.007-.006-.007-.006-.007-.006-.006-.005-.007-.006-.006-.006-.006-.005-.006-.006-.006-.005-.006-.006L7.4 7.55l-.006-.005-3.786-3.787.006.006.005.005.006.005.006.006.006.005.006.006.006.006.007.005.006.006.007.006.006.006.007.006.007.005.007.006.007.006.008.006.007.006.007.006.008.006.007.005.008.006.007.006.008.006.008.005.008.006.007.006z"/><path id="_431221400" class="fil1" d="m5.28 5.2 3.786 3.786H6.62L2.834 5.2z"/><path id="_431221544" class="fil1" d="M4.135 2.162 7.922 5.95l.003.004.003.004.002.005v.005L4.146 2.18l-.002-.005-.002-.005-.002-.004z"/><path id="_431221016" class="fil1" d="m4.673 2.461 3.786 3.786.023.028.02.027.02.027.018.027.016.026.015.026.013.024.011.024.01.022.01.02.007.019.006.017.005.015.004.012.002.01.002.008v.006L4.854 2.798l.001-.001v-.005l-.002-.007-.003-.01-.003-.013-.005-.015-.006-.016-.008-.02-.009-.02-.01-.022-.011-.023-.013-.025-.015-.025-.016-.026-.018-.027-.02-.027-.02-.028z"/><path id="_431221160" class="fil1" d="m4.854 2.798 3.787 3.787v.005l-.002.003v.003l-.001.003-.001.003-.001.004-.001.003-.001.004-.001.003-.002.004v.003l-.002.004-.001.003-.001.004-.001.003-3.787-3.786.001-.004.002-.003v-.003l.002-.004.001-.004.001-.003.002-.004v-.003l.002-.003v-.004l.002-.003V2.81l.001-.003v-.003l.001-.003z"/><path id="_431222192" class="fil1" d="m4.84 2.85 3.786 3.787-.001.003-.001.003-.001.003-.001.003v.003l-.002.003v.003l-.002.003-3.786-3.787v-.003l.002-.003v-.003l.002-.003V2.86l.002-.002v-.003z"/><path id="_431221736" class="fil1" d="m4.832 2.874 3.786 3.787v.008l-.002.009-.002.008-.002.009-.002.008-.003.008-.003.008-.003.008-.004.008-.004.007-.004.008-.004.007-.005.007-.005.006-.005.007-.006.006-3.786-3.786.005-.006.006-.007.005-.007.004-.007.005-.007.004-.007.004-.008.004-.007.003-.008.003-.008.003-.008.002-.008.002-.009.002-.008v-.009z"/><path id="_431222096" class="fil1" d="m4.789 3.008 3.786 3.786.003.004.004.004.003.004.003.004.003.004.003.005.003.004.003.004.003.005.002.005.002.004.003.005.002.005.002.005.002.004.002.005.002.005.001.005.002.006v.005l.002.005.001.005.001.006v.005l.002.005V6.934L4.844 3.148v-.022l-.001-.005-.001-.006-.001-.005-.001-.005-.001-.005-.002-.006-.001-.005-.002-.005-.001-.005-.002-.005-.002-.005-.002-.005-.002-.004-.003-.005-.002-.005-.003-.004-.002-.005-.003-.004-.003-.005-.003-.004-.003-.004-.003-.004-.003-.004-.004-.004z"/><path id="_431221664" class="fil1" d="M4.843 3.148 8.63 6.934V6.948l-.001.004v.005l-.001.004v.004l-.001.004-.001.005v.004l-.002.004v.004l-.002.004-.001.004L8.619 7v.004l-.002.004-.002.004-.001.003-.002.004-.002.004-.002.004-.002.004-.002.003-.002.004-.002.004-.002.003-.002.004-.002.003-.003.004-.002.003-.003.003L4.8 3.275l.003-.003.002-.004.002-.003.003-.004.002-.003.002-.004.002-.003.002-.004.002-.004.002-.003.002-.004.002-.004.001-.004.002-.004.001-.004.002-.004.001-.004.002-.004v-.004l.002-.004v-.004l.002-.004v-.005l.001-.004.001-.004v-.004l.001-.005v-.004l.001-.004V3.153z"/><path id="_431221856" class="fil1" d="m4.8 3.275 3.786 3.786.002.005.001.004.002.004.001.005.001.004.001.005.001.004.001.005.001.004v.005l.001.005v.004l.001.005v.014L4.814 3.348v-.024L4.81 3.32v-.005L4.81 3.31v-.004L4.807 3.3l-.001-.004-.001-.005-.002-.004v-.004l-.002-.005z"/><path id="_431221760" class="fil1" d="M4.813 3.348 8.6 7.134v.016l-.002.008v.008l-.002.007-.002.008-.001.007-.002.008-.003.007-.003.007-.002.007-.004.007-.003.007-.004.006-.003.007-.004.006-.005.006-.004.006-.005.006-.005.006-.005.005-.005.005-.005.005-.006.005-.006.005-.006.004-.006.005-.006.004-.007.004-.006.003-.007.004-.007.003L4.688 3.54l.007-.004.006-.003.007-.004.006-.003.007-.004.006-.005.006-.004.006-.005.005-.005.006-.005.005-.005.005-.006.005-.005.005-.006.004-.006.004-.006.004-.007.004-.006.004-.007.003-.006.003-.007.003-.007.003-.007.002-.008.002-.007.002-.007.002-.008.001-.008.001-.007v-.008l.001-.008z"/><path id="_431222336" class="fil1" d="m4.688 3.54 3.786 3.786-.001.006-.002.007-.001.006-.002.006-.003.006-.002.007-.002.005-.003.006-.003.006-.003.006-.003.005-.003.006-.004.005-.004.005-.003.006-.004.005-.005.004-.004.005-.004.005-.005.004-.004.005-.005.004-.005.004-.005.004-.005.004-.006.003-.005.004-.006.003-.005.003-.006.003-.006.003-.006.002-3.786-3.786.006-.003.006-.002.005-.003.006-.003.006-.004.005-.003.005-.004.005-.004.006-.003.004-.004.005-.005.005-.004.005-.004.004-.005.004-.005.004-.005.004-.005.004-.005.004-.005.003-.005.004-.006.003-.005.003-.006.003-.006.002-.006.003-.006.002-.006.002-.006.002-.006.002-.007.002-.006z"/><path id="_431222216" class="fil1" d="m4.319 3.912 3.786 3.786v.108L4.32 4.02z"/><path id="_431221688" class="fil1" d="m4.319 4.02 3.786 3.786v.08L4.32 4.099z"/><path id="_431222288" class="fil1" d="m5.077 4.52 3.787 3.786.008.01.01.012.008.013.008.013.008.016.007.016.008.017.007.018.008.02.007.019.007.02.006.022.007.023.006.022.007.024.006.024.006.025.006.025L9 8.67l.005.026.006.026.006.026.005.026.006.027.006.027.005.026.005.027.006.027.005.026.006.026.005.026L5.28 5.2l-.005-.026-.006-.026-.005-.027-.006-.026-.005-.027-.006-.027-.005-.026-.006-.027-.005-.026-.006-.027-.006-.026-.006-.025-.005-.026-.006-.025-.007-.024-.006-.024-.006-.024-.006-.023-.007-.022-.007-.021-.007-.021-.007-.02-.007-.02-.007-.017-.008-.018-.008-.016-.008-.015-.008-.014-.008-.013-.009-.011z"/><path id="_435566776" class="fil1" d="M4.74 4.3c.204.108.286.174.328.21.099.088.154.414.212.69H2.833c.059-.276.113-.602.212-.69a1.53 1.53 0 0 1 .27-.179l-.603-1.816-.928.3-.042-.089a.125.125 0 0 1-.157-.08l-.038-.118.102-.034-.067-.209 2.033-.658.068.209.103-.034.038.119c.025.075-.02.138-.092.16l.03.093-.925.3.596 1.795a7.517 7.517 0 0 1 .361-.17v-.187a1.429 1.429 0 0 1-.21-.179.209.209 0 0 1-.177-.21.209.209 0 0 1-.103-.274.208.208 0 0 1 .008-.275.208.208 0 0 1-.04-.123c0-.012.002-.044.005-.055.019-.324.398-.566.69-.612 0-.028.04-.05.089-.05.046 0 .084.02.089.047.567.07.72.617.71.617-.001.014-.01.035-.016.053a.897.897 0 0 1-.007.023.208.208 0 0 1-.054.123.208.208 0 0 1 .022.278.207.207 0 0 1-.112.265.21.21 0 0 1-.125.153c-.035.05-.136.143-.244.22V4.1l.08.035c.115.052.232.105.342.165z"/></g></g><path d="M3.413 0a3.413 3.413 0 1 1 0 6.827 3.413 3.413 0 0 1 0-6.827z" style="fill:none"/><path class="fil3" d="M4.445 2.848a.21.21 0 0 0 0-.419.21.21 0 0 0 0 .419z"/><path class="fil3" d="M4.24 2.756a.21.21 0 0 0 0-.419.21.21 0 0 0 0 .419z"/><path class="fil3" d="M3.925 2.723a.21.21 0 0 0 0-.418.21.21 0 0 0 0 .418z"/><path class="fil3" d="M3.644 2.826a.21.21 0 0 0 0-.418.21.21 0 0 0 0 .418z"/><path class="fil3" d="M3.481 3.059a.21.21 0 0 0 0-.419.21.21 0 0 0 0 .419zM4.623 3.064a.21.21 0 0 0 0-.418.21.21 0 0 0 0 .418z"/><path class="fil3" d="M4.634 3.357a.21.21 0 0 0 0-.419.21.21 0 0 0 0 .419z"/><path class="fil3" d="M4.483 3.709a.21.21 0 0 0 0-.419.21.21 0 0 0 0 .419zM3.465 3.324a.21.21 0 0 0 0-.418.21.21 0 0 0 0 .418zM3.617 3.736a.21.21 0 0 0 0-.419.21.21 0 0 0 0 .419z"/><path class="fil3" d="M4.604 3.557a.21.21 0 0 0 0-.419.21.21 0 0 0 0 .419zM3.495 3.542a.21.21 0 0 0 0-.419.21.21 0 0 0 0 .419z"/><path class="fil4" d="M3.812 4.09c-.54.238-.703.364-.767.421-.099.087-.153.413-.212.69H5.28c-.058-.277-.113-.603-.212-.69-.064-.057-.22-.18-.76-.417l-.496-.003z"/><path class="fil4" d="M4.32 3.618v.6c-.145.177-.381.17-.526 0v-.6c0-.323.525-.323.525 0z"/><path d="M4.32 3.618v.402a.504.504 0 0 1-.263.113.504.504 0 0 1-.263-.113v-.402c0-.323.525-.323.525 0z" style="fill:#b88052"/><path class="fil4" d="M4.057 2.542c-.881 0-.565 1.065-.507 1.15.063.093.364.341.507.341.142 0 .443-.248.506-.341.058-.085.375-1.15-.506-1.15z"/><path class="fil4" d="M3.386 3.231c.046-.015.105.037.131.117.027.08.01.158-.036.173-.046.015-.105-.037-.131-.117-.027-.08-.01-.158.036-.173zM4.738 3.231c-.047-.015-.105.037-.132.117-.026.08-.01.158.036.173.047.015.105-.037.132-.117.026-.08.01-.158-.036-.173z"/><path class="fil3" d="M3.985 2.902a.21.21 0 0 0 0-.419.21.21 0 0 0 0 .42z"/><path class="fil3" d="M4.272 2.891a.21.21 0 0 0 0-.418.21.21 0 0 0 0 .418zM3.774 2.967a.21.21 0 0 0 0-.419.21.21 0 0 0 0 .419z"/><path class="fil3" d="M3.618 3.04a.178.178 0 0 0 0-.356.178.178 0 0 0 0 .356zM4.44 3.021a.21.21 0 0 0 0-.418.21.21 0 0 0 0 .418z"/><path class="fil3" d="M4.61 3.163a.148.148 0 0 0 0-.295.148.148 0 0 0 0 .295zM3.523 3.191a.143.143 0 0 0 0-.285.143.143 0 0 0 0 .285z"/><path class="fil3" d="M3.493 3.289a.092.092 0 0 0 0-.183.092.092 0 0 0 0 .183zM4.635 3.3a.092.092 0 0 0 0-.183.092.092 0 0 0 0 .183z"/><path class="fil3" d="M3.504 3.37a.064.064 0 0 0 0-.129.064.064 0 0 0 0 .129zM4.625 3.365a.064.064 0 0 0 0-.13.064.064 0 0 0 0 .13z"/><path d="M3.774 3.599c.074.058.491.054.565 0-.064.305-.48.314-.565 0z" style="fill:#cf976a"/><path class="fil7" d="M3.794 4.099c-.526.232-.686.356-.749.412-.099.087-.153.413-.212.69H5.28c-.058-.277-.113-.603-.212-.69-.063-.056-.218-.178-.749-.412-.104.142-.39.165-.525 0z"/><path d="M3.727 4.129c-.473.213-.621.328-.682.382-.099.088-.153.413-.212.69H5.28c-.058-.277-.113-.602-.212-.69-.06-.053-.202-.165-.668-.376-.209.22-.6.15-.673-.006z" style="fill:#85bceb"/><path class="fil9" d="M3.332 5.201h.042l-.002-.32s-.019.14-.04.32zM4.781 5.201H4.74l.001-.32s.019.14.04.32z"/><path d="M4.06 2.174c.283-.002.721.205.795.623H3.277c.018-.362.486-.621.783-.623z" style="fill:#29b6f6"/><path class="fil11" d="M4.059 2.193a.616.616 0 0 0-.238.149.837.837 0 0 0-.187.34l-.018-.006a.856.856 0 0 1 .192-.348.634.634 0 0 1 .244-.153l.007.018zM4.059 2.193a.616.616 0 0 1 .238.149.837.837 0 0 1 .186.34l.018-.006a.856.856 0 0 0-.191-.348.634.634 0 0 0-.245-.153l-.006.018z"/><ellipse cx="4.056" cy="2.184" rx=".089" ry=".051" style="fill:#0288d1"/><path d="M4.84 2.85c-.025.08-.066.184-.185.211-.127.03-.426-.073-.585-.073-.166 0-.411.092-.543.06-.132-.033-.202-.14-.239-.224-.01-.025-.02-.029.005-.045.313-.193 1.145-.207 1.56.01.006.01-.007.039-.014.06z" style="fill:#4fc3f7"/><path class="fil7" d="m2.687 2.438.125-.04.93 2.804h-.138z"/><path style="fill:#7cb342" d="m1.784 2.814 1.978-.641-.035-.111-1.979.641z"/><path d="m1.547 2.526 2.239-.725.038.118a.125.125 0 0 1-.08.157l-2.002.649a.125.125 0 0 1-.157-.08l-.038-.119z" style="fill:#9ccc65"/><path class="fil7" d="m1.582 2.284 2.033-.66.068.21-2.034.66z"/></g></svg>
