<svg version="1.1" id="Layer_1" xmlns="http://www.w3.org/2000/svg" x="0" y="0" viewBox="0 0 256 256" style="enable-background:new 0 0 256 256" xml:space="preserve"><style>.st0{fill:#382b73}.st2{fill:#d1d3d4}.st4{fill:#f7cb15}.st5{fill:#fede3a}.st6{fill:#e7ad27}</style><switch><g><circle class="st0" cx="128" cy="128" r="120"/><circle cx="128" cy="128" r="102.5" style="fill:#473080"/><path class="st0" d="M171.122 65.765H84.878a4.19 4.19 0 0 0-4.19 4.19v127.698a4.19 4.19 0 0 0 4.19 4.19h27.753l-2.029 7.38a.758.758 0 0 0-.024.228l-.003.027a.714.714 0 0 0 .175.421.735.735 0 0 0 1.05.078l5.628-4.897a.738.738 0 0 1 .302-.152c.034-.009.068-.008.102-.012a.729.729 0 0 1 .783.49l2.334 7.085c.229.695 1.221.671 1.415-.035l2.918-10.613h5.436l2.918 10.613c.194.706 1.186.731 1.415.035l2.333-7.085a.729.729 0 0 1 .783-.49c.034.004.068.003.102.012a.709.709 0 0 1 .302.152l5.628 4.897c.345.3.803.206 1.05-.078.148-.171.221-.411.148-.675l-2.029-7.38h27.753a4.19 4.19 0 0 0 4.19-4.19V69.955a4.19 4.19 0 0 0-4.189-4.19z"/><g><path class="st2" d="M171.122 194.843H84.878a4.19 4.19 0 0 1-4.19-4.19V67.05a4.19 4.19 0 0 1 4.19-4.19h86.243a4.19 4.19 0 0 1 4.19 4.19v123.603a4.19 4.19 0 0 1-4.189 4.19z"/><path d="M171.122 190.748H84.878a4.19 4.19 0 0 1-4.19-4.19V62.955a4.19 4.19 0 0 1 4.19-4.19h86.243a4.19 4.19 0 0 1 4.19 4.19v123.603a4.19 4.19 0 0 1-4.189 4.19z" style="fill:#fff"/><path class="st2" d="M122.957 114.054h-8.238a3 3 0 1 1 0-6h8.238a3 3 0 1 1 0 6zM141.281 114.054h-8.238a3 3 0 1 1 0-6h8.238a3 3 0 1 1 0 6zM104.633 144.081h-8.238a3 3 0 1 1 0-6h8.238a3 3 0 1 1 0 6zM122.957 144.081h-8.238a3 3 0 1 1 0-6h8.238a3 3 0 1 1 0 6zM141.281 144.081h-8.238a3 3 0 1 1 0-6h8.238a3 3 0 1 1 0 6zM159.605 144.081h-8.238a3 3 0 1 1 0-6h8.238a3 3 0 1 1 0 6z"/><g><path class="st2" d="M104.633 129.067h-8.238a3 3 0 1 1 0-6h8.238a3 3 0 1 1 0 6zM122.957 129.067h-8.238a3 3 0 1 1 0-6h8.238a3 3 0 1 1 0 6zM141.281 129.067h-8.238a3 3 0 1 1 0-6h8.238a3 3 0 1 1 0 6zM159.605 129.067h-8.238a3 3 0 1 1 0-6h8.238a3 3 0 1 1 0 6z"/></g><path class="st2" d="M146.604 109.255zm1.696 1.221c.046.005.092.009.139.012-.046-.003-.093-.006-.139-.012zM141.395 164.373a3.79 3.79 0 0 1-3.98-3.98c.182-3.563-4.21-5.382-6.601-2.734a3.792 3.792 0 0 1-5.629 0c-2.391-2.648-6.783-.829-6.601 2.734a3.79 3.79 0 0 1-3.98 3.98c-3.563-.182-5.382 4.21-2.734 6.601a3.792 3.792 0 0 1 0 5.629c-2.648 2.391-.829 6.783 2.734 6.601a3.753 3.753 0 0 1 2.403.721l-3.002 10.919h12.651l.665-2.419.678-2.466.678 2.466.665 2.419h12.651l-3.002-10.919a3.753 3.753 0 0 1 2.403-.721c3.563.182 5.383-4.21 2.734-6.601a3.792 3.792 0 0 1 0-5.629c2.65-2.391.83-6.783-2.733-6.601z"/><g><path class="st4" d="m120.949 205.492-2.334-7.085a.74.74 0 0 0-1.187-.327l-5.628 4.897c-.552.48-1.392-.048-1.198-.754l7.664-27.875 11.762 3.234-7.664 27.875c-.194.706-1.186.73-1.415.035z"/><path class="st5" d="m118.266 174.348-7.664 27.875c-.194.706.646 1.234 1.198.754l5.628-4.897a.729.729 0 0 1 .54-.179l6.015-21.981-5.717-1.572z"/><path class="st4" d="m135.051 205.492 2.333-7.085a.74.74 0 0 1 1.188-.327l5.628 4.897c.552.48 1.392-.048 1.198-.754l-7.664-27.875-11.762 3.234 7.664 27.875c.194.706 1.186.73 1.415.035z"/><path class="st5" d="m145.397 202.223-7.664-27.875-5.717 1.572 6.015 21.981a.733.733 0 0 1 .54.179l5.628 4.897c.553.48 1.393-.048 1.198-.754z"/><path class="st6" d="m118.266 174.348-2.14 7.786a3.793 3.793 0 0 1 2.459 3.746c-.182 3.563 4.21 5.382 6.601 2.734a3.77 3.77 0 0 1 2.136-1.19l2.706-9.842-11.762-3.234z"/><path class="st6" d="m139.874 182.134-2.141-7.786-11.762 3.234 2.706 9.842a3.77 3.77 0 0 1 2.136 1.19c2.391 2.648 6.783.829 6.601-2.734a3.796 3.796 0 0 1 2.46-3.746z"/><path class="st5" d="M130.814 152.659c2.391-2.648 6.783-.829 6.601 2.734a3.79 3.79 0 0 0 3.98 3.98c3.563-.182 5.383 4.21 2.734 6.601a3.792 3.792 0 0 0 0 5.629c2.648 2.391.829 6.783-2.734 6.601a3.79 3.79 0 0 0-3.98 3.98c.182 3.563-4.21 5.382-6.601 2.734a3.792 3.792 0 0 0-5.629 0c-2.391 2.648-6.783.829-6.601-2.734a3.79 3.79 0 0 0-3.98-3.98c-3.563.182-5.382-4.21-2.734-6.601a3.792 3.792 0 0 0 0-5.629c-2.648-2.391-.829-6.783 2.734-6.601a3.79 3.79 0 0 0 3.98-3.98c-.182-3.563 4.21-5.382 6.601-2.734a3.793 3.793 0 0 0 5.629 0z"/><g><circle transform="rotate(-76.714 128.014 168.797)" class="st4" cx="128" cy="168.788" r="12.317"/></g><g><circle class="st6" cx="128" cy="168.788" r="9.549"/></g><g><path d="m129.406 163.321.52 1.6a1.48 1.48 0 0 0 1.406 1.022h1.682c1.432 0 2.028 1.833.869 2.675l-1.361.988a1.479 1.479 0 0 0-.537 1.653l.52 1.6c.443 1.362-1.117 2.495-2.275 1.653l-1.361-.989a1.48 1.48 0 0 0-1.738 0l-1.361.989c-1.159.842-2.718-.291-2.275-1.653l.52-1.6a1.478 1.478 0 0 0-.537-1.653l-1.361-.988c-1.159-.842-.563-2.675.869-2.675h1.682c.641 0 1.208-.412 1.406-1.022l.52-1.6c.442-1.362 2.37-1.362 2.812 0z" style="fill:#fff335"/></g></g><circle transform="rotate(-22.5 127.994 84.132)" class="st2" cx="128" cy="84.135" r="16.615"/></g></g></switch></svg>
