<?xml version="1.0" encoding="UTF-8" standalone="no"?>
<svg
   version="1.1"
   id="Icon_Set"
   x="0px"
   y="0px"
   viewBox="0 0 527.99998 527.99998"
   xml:space="preserve"
   sodipodi:docname="roadblock.svg"
   width="5.5in"
   height="5.5in"
   inkscape:version="1.1.1 (c3084ef, 2021-09-22)"
   xmlns:inkscape="http://www.inkscape.org/namespaces/inkscape"
   xmlns:sodipodi="http://sodipodi.sourceforge.net/DTD/sodipodi-0.dtd"
   xmlns="http://www.w3.org/2000/svg"
   xmlns:svg="http://www.w3.org/2000/svg"><defs
   id="defs1855" /><sodipodi:namedview
   id="namedview1853"
   pagecolor="#ffffff"
   bordercolor="#666666"
   borderopacity="1.0"
   inkscape:pageshadow="2"
   inkscape:pageopacity="0.0"
   inkscape:pagecheckerboard="0"
   showgrid="false"
   units="in"
   fit-margin-top="0"
   fit-margin-left="0"
   fit-margin-right="0"
   fit-margin-bottom="0"
   inkscape:zoom="0.82714844"
   inkscape:cx="208.54782"
   inkscape:cy="417.70012"
   inkscape:window-width="2560"
   inkscape:window-height="999"
   inkscape:window-x="-27"
   inkscape:window-y="58"
   inkscape:window-maximized="0"
   inkscape:current-layer="Icon_Set"
   inkscape:document-units="in" />
<style
   type="text/css"
   id="style1766">
	.st0{fill:#4C4372;}
	.st1{fill:#F0C48A;}
	.st2{fill:#FD919E;}
	.st3{fill:#E8677D;}
	.st4{fill:#D3E6F8;}
	.st5{fill:#A4CFF2;}
	.st6{fill:#7BABF1;}
	.st7{fill:#FFFFFF;}
</style>
<g
   id="g1850"
   transform="translate(11.520669,8.8358914)">
	<g
   id="g1774">
		<g
   id="g1772">
			<g
   id="g1770">
				<circle
   class="st1"
   cx="256"
   cy="256"
   r="207"
   id="circle1768" />
			</g>
		</g>
	</g>
	<g
   id="g1848">
		<g
   id="g1780">
			<g
   id="g1778">
				<polygon
   class="st2"
   points="127.985,458.115 384.016,458.115 294.206,5.863 217.794,5.863 "
   id="polygon1776" />
			</g>
		</g>
		<g
   id="g1786">
			<g
   id="g1784">
				<polygon
   class="st3"
   points="342.725,458.115 384.016,458.115 294.206,5.863 267.002,5.863 "
   id="polygon1782" />
			</g>
		</g>
		<g
   id="g1792">
			<g
   id="g1790">
				<polygon
   class="st4"
   points="348.109,277.301 163.891,277.301 145.923,367.78 366.077,367.78 "
   id="polygon1788" />
			</g>
		</g>
		<g
   id="g1798">
			<g
   id="g1796">
				<polygon
   class="st5"
   points="366.077,367.78 348.109,277.301 312.451,277.301 327.6,367.78 "
   id="polygon1794" />
			</g>
		</g>
		<g
   id="g1804">
			<g
   id="g1802">
				<polygon
   class="st4"
   points="312.173,96.342 199.827,96.342 181.859,186.821 330.141,186.821 "
   id="polygon1800" />
			</g>
		</g>
		<g
   id="g1810">
			<g
   id="g1808">
				<polygon
   class="st5"
   points="330.141,186.821 312.173,96.342 282.153,96.342 297.301,186.821 "
   id="polygon1806" />
			</g>
		</g>
		<g
   id="g1816">
			<g
   id="g1814">
				<rect
   x="53.582001"
   y="458.11499"
   class="st5"
   width="404.836"
   height="48.021999"
   id="rect1812" />
			</g>
		</g>
		<g
   id="g1822">
			<g
   id="g1820">
				<rect
   x="403.26401"
   y="458.11499"
   class="st6"
   width="55.153999"
   height="48.021999"
   id="rect1818" />
			</g>
		</g>
		<g
   id="g1828">
			<g
   id="g1826">
				<path
   class="st0"
   d="M 384.016,463.978 H 127.984 c -1.755,0 -3.418,-0.786 -4.531,-2.143 -1.114,-1.356 -1.562,-3.141 -1.219,-4.862 L 212.044,4.72 C 212.588,1.977 214.997,0 217.793,0 h 76.413 c 2.798,0 5.205,1.977 5.75,4.721 l 89.81,452.253 c 0.343,1.721 -0.104,3.505 -1.218,4.862 -1.114,1.356 -2.777,2.142 -4.532,2.142 z M 135.125,452.253 h 241.75 L 289.393,11.725 h -66.786 z"
   id="path1824" />
			</g>
		</g>
		<g
   id="g1834">
			<g
   id="g1832">
				<path
   class="st0"
   d="M 458.418,512 H 53.582 c -3.238,0 -5.863,-2.625 -5.863,-5.862 v -48.022 c 0,-3.238 2.625,-5.863 5.863,-5.863 h 404.836 c 3.237,0 5.862,2.625 5.862,5.863 v 48.022 c 0.001,3.237 -2.624,5.862 -5.862,5.862 z M 59.445,500.275 h 393.11 V 463.978 H 59.445 Z"
   id="path1830" />
			</g>
		</g>
		<g
   id="g1840">
			<g
   id="g1838">
				<path
   class="st0"
   d="M 330.141,192.684 H 181.859 c -1.755,0 -3.418,-0.786 -4.531,-2.143 -1.113,-1.357 -1.561,-3.14 -1.219,-4.862 L 194.077,95.2 c 0.545,-2.744 2.952,-4.721 5.75,-4.721 h 112.348 c 2.797,0 5.205,1.977 5.75,4.721 l 17.967,90.479 c 0.343,1.721 -0.104,3.505 -1.219,4.862 -1.114,1.357 -2.777,2.143 -4.532,2.143 z M 189,180.959 H 323 L 307.36,102.205 H 204.639 Z"
   id="path1836" />
			</g>
		</g>
		<g
   id="g1846">
			<g
   id="g1844">
				<path
   class="st0"
   d="M 366.077,373.643 H 145.924 c -1.755,0 -3.418,-0.786 -4.531,-2.143 -1.114,-1.356 -1.562,-3.141 -1.219,-4.862 l 17.967,-90.479 c 0.545,-2.744 2.952,-4.721 5.75,-4.721 h 184.218 c 2.798,0 5.205,1.977 5.75,4.721 l 17.968,90.479 c 0.343,1.721 -0.105,3.505 -1.219,4.862 -1.114,1.357 -2.776,2.143 -4.531,2.143 z M 153.065,361.918 h 205.87 L 343.296,283.164 H 168.705 Z"
   id="path1842" />
			</g>
		</g>
	</g>
</g>
</svg>
