<svg version="1.1" id="Layer_1" xmlns="http://www.w3.org/2000/svg" x="0" y="0" viewBox="0 0 256 256" style="enable-background:new 0 0 256 256" xml:space="preserve"><style>.st0{fill:#382b73}.st2{fill:#fff}.st3{fill:#ef5a9d}.st4{fill:#e43d91}.st5{fill:#fede3a}.st6{fill:#f7cb15}</style><switch><g><circle class="st0" cx="128" cy="128" r="119.4"/><circle cx="128" cy="128" r="103.299" style="fill:#473080"/><path class="st0" d="m203.511 126.566-20.948-26.579V84.543c0-.437-.098-.849-.266-1.224-.018-.109-.033-.22-.055-.327l-.012-.046a7.432 7.432 0 0 0-.459-1.403v-.001a7.428 7.428 0 0 0-6.794-4.43h-36.025a13.217 13.217 0 0 0-10.951-5.804 13.22 13.22 0 0 0-10.951 5.804H81.024a7.428 7.428 0 0 0-6.794 4.43v.001a7.35 7.35 0 0 0-.461 1.411l-.009.036c-.023.108-.038.219-.056.328a2.978 2.978 0 0 0-.266 1.224v15.444L52.49 126.565a2.988 2.988 0 0 0-.441 2.911 24.471 24.471 0 0 0 .742 5.048 24.372 24.372 0 0 0 6.382 11.163 24.658 24.658 0 0 0 2.656 2.301 24.45 24.45 0 0 0 5.104 2.932 24.283 24.283 0 0 0 9.504 1.919c1.685 0 3.331-.171 4.921-.496a24.017 24.017 0 0 0 3.475-.986 24.187 24.187 0 0 0 3.243-1.465 24.567 24.567 0 0 0 10.371-10.884 24.298 24.298 0 0 0 2.381-9.532 2.99 2.99 0 0 0-.441-2.911L79.438 99.987v-8.188a7.468 7.468 0 0 0 1.586.174h36.025a12.952 12.952 0 0 0 1.593 1.928 13.27 13.27 0 0 0 1.928 1.593v75.814c-4.774 2.626-8.01 7.701-8.01 13.533v3.367H93.506a5.904 5.904 0 0 0-5.904 5.904v6.955a2.004 2.004 0 0 0 2 2.001h76.796a2.004 2.004 0 0 0 2-2.001v-6.955a5.904 5.904 0 0 0-5.904-5.904H143.44v-3.367c0-5.833-3.237-10.907-8.01-13.533V95.493a13.28 13.28 0 0 0 3.522-3.521h36.025c.545 0 1.075-.062 1.586-.174v8.188l-20.949 26.579a2.99 2.99 0 0 0-.441 2.911 24.298 24.298 0 0 0 3.508 11.607 24.54 24.54 0 0 0 10.297 9.348 24.43 24.43 0 0 0 3.325 1.31 24.307 24.307 0 0 0 7.261 1.098c.843 0 1.676-.043 2.497-.126 11.968-1.215 21.377-11.076 21.894-23.237.354-.95.23-2.055-.444-2.91zm-23.948-20.692 17.772 22.549H161.79l17.773-22.549zm-103.125 0 17.773 22.549H58.666l17.772-22.549z"/><g><path class="st2" d="M98.032 124.423a2.994 2.994 0 0 1-2.358-1.143L76.438 98.874 57.202 123.28a3 3 0 1 1-4.713-3.714L74.081 92.17a3 3 0 0 1 4.712 0l21.593 27.396a3 3 0 0 1-2.354 4.857z"/><path class="st2" d="M76.438 97.027a3 3 0 0 1-3-3V77.543a3 3 0 1 1 6 0v16.484a3 3 0 0 1-3 3z"/><path class="st3" d="M76.438 145.84c13.485 0 24.417-10.932 24.417-24.417H52.021c0 13.485 10.932 24.417 24.417 24.417z"/><path class="st4" d="M76.438 138.84c-11.051 0-20.383-7.344-23.393-17.417h-1.024c0 13.485 10.932 24.417 24.417 24.417 13.485 0 24.417-10.932 24.417-24.417h-1.024c-3.01 10.073-12.342 17.417-23.393 17.417z"/><g><path class="st2" d="M157.968 124.423a3 3 0 0 1-2.354-4.857l21.593-27.396a3 3 0 0 1 4.712 0l21.592 27.396a3 3 0 0 1-4.713 3.714l-19.235-24.406-19.236 24.406a2.999 2.999 0 0 1-2.359 1.143z"/><path class="st2" d="M179.563 97.027a3 3 0 0 1-3-3V77.543a3 3 0 1 1 6 0v16.484a3 3 0 0 1-3 3z"/><path class="st3" d="M179.562 145.84c13.485 0 24.417-10.932 24.417-24.417h-48.834c0 13.485 10.932 24.417 24.417 24.417z"/><path class="st4" d="M179.562 138.84c-11.051 0-20.383-7.344-23.393-17.417h-1.024c0 13.485 10.932 24.417 24.417 24.417 13.485 0 24.417-10.932 24.417-24.417h-1.024c-3.01 10.073-12.342 17.417-23.393 17.417z"/></g><g><path class="st5" d="M162.494 181.207H93.506a5.904 5.904 0 0 0-5.904 5.904v6.955a2 2 0 0 0 2 2h76.796a2 2 0 0 0 2-2v-6.955a5.904 5.904 0 0 0-5.904-5.904z"/><path class="st6" d="M166.398 190.066H89.602a2 2 0 0 1-2-2v6a2 2 0 0 0 2 2h76.796a2 2 0 0 0 2-2v-6a2 2 0 0 1-2 2zM120.571 76.382h14.859v98.209h-14.859z"/><path class="st5" d="M124.75 76.382h6.5v98.209h-6.5z"/><path class="st5" d="M73.594 77.543a7.43 7.43 0 0 1 7.43-7.43h93.952a7.43 7.43 0 1 1 0 14.859H81.024a7.43 7.43 0 0 1-7.43-7.429z"/><path class="st6" d="M174.976 78.972H81.024a7.429 7.429 0 0 1-6.794-4.429 7.395 7.395 0 0 0-.636 3 7.429 7.429 0 0 0 7.429 7.429h93.952a7.43 7.43 0 0 0 7.43-7.429c0-1.069-.23-2.082-.636-3a7.426 7.426 0 0 1-6.793 4.429z"/><path d="M128 162.401c-8.527 0-15.439 6.912-15.439 15.439v3.367h30.879v-3.367c-.001-8.526-6.913-15.439-15.44-15.439z" style="fill:#e7ad27"/><path class="st6" d="M129.98 162.401h-3.96a8.437 8.437 0 0 0-8.437 8.437v10.369h20.833v-10.369a8.436 8.436 0 0 0-8.436-8.437z"/><circle transform="rotate(-23.273 128.002 77.544)" class="st5" cx="128" cy="77.543" r="13.234"/><path class="st6" d="M128 84.776c-6.275 0-11.518-4.372-12.879-10.234a13.236 13.236 0 0 0-.354 3c0 7.309 5.925 13.234 13.234 13.234s13.234-5.925 13.234-13.234c0-1.034-.13-2.035-.355-3-1.361 5.862-6.605 10.234-12.88 10.234z"/></g></g></g></switch></svg>
