<svg xmlns="http://www.w3.org/2000/svg" xml:space="preserve" width="2048" height="2048" style="shape-rendering:geometricPrecision;text-rendering:geometricPrecision;image-rendering:optimizeQuality;fill-rule:evenodd;clip-rule:evenodd"><defs><clipPath id="id0"><path d="M1024-.001c565.539 0 1024 458.462 1024 1024 0 565.539-458.462 1024-1024 1024-565.539 0-1024-458.462-1024-1024 0-565.54 458.462-1024 1024-1024z"/></clipPath><style>.fil10{fill:#dd2c00}.fil9{fill:#e53935}.fil1{fill:#ffa726}</style></defs><g id="Layer_x0020_1"><path d="M1024-.001c565.539 0 1024 458.462 1024 1024 0 565.539-458.462 1024-1024 1024-565.539 0-1024-458.462-1024-1024 0-565.54 458.462-1024 1024-1024z" style="fill:#ffcc80"/><g style="clip-path:url(#id0)"><g id="_289371200"><path id="_2926791921" class="fil1" d="M1584 743.999 2719.88 1879.88v816.67L1584 1560.67z"/><path id="_292678880" class="fil1" d="m1584 1560.67 1135.88 1135.88-.12 2.38-.35 2.32-.58 2.24-.78 2.14-.98 2.04-1.17 1.92-1.35 1.8-1.5 1.66-1.66 1.5-1.8 1.35-1.92 1.17-2.04.98-2.14.78-2.24.58-2.32.35-2.38.12L1560.67 1584l2.38-.12 2.32-.35 2.24-.58 2.14-.78 2.04-.99 1.92-1.16 1.8-1.35 1.66-1.5 1.5-1.66 1.35-1.8 1.16-1.92.99-2.04.78-2.14.58-2.24.35-2.32z"/><path id="_292680200" class="fil1" d="m1560.67 1584 1135.88 1135.88H1623.22L487.334 1584z"/><path id="_292680728" class="fil1" d="M487.334 1584 1623.22 2719.88l-2.39-.12-2.32-.35-2.23-.58-2.15-.78-2.04-.98-1.92-1.17-1.8-1.35L472.491 1578.67l1.796 1.35 1.924 1.16 2.04.99 2.144.78 2.236.58 2.317.35z"/><path id="_292680752" class="fil1" d="M1578.67 472.491 2714.55 1608.37l1.35 1.8 1.17 1.92.98 2.04.78 2.15.58 2.23.35 2.32.12 2.39L1584 487.334l-.12-2.386-.35-2.317-.58-2.236-.78-2.144-.99-2.04-1.16-1.924z"/><path id="_292680416" class="fil1" d="M1584 487.334 2719.88 1623.22v210L1584 697.335z"/><path id="_292680152" class="fil1" d="M1584 697.335 2719.88 1833.22v46.66L1584 743.999z"/><path id="_289371008" class="fil1" d="M1584 743.999v816.667c0 12.887-10.448 23.335-23.335 23.335H487.335c-12.887 0-23.335-10.448-23.335-23.335V487.334c0-12.887 10.448-23.335 23.335-23.335h1073.33c12.887 0 23.335 10.448 23.335 23.335v256.665z"/></g></g><path d="M1024-.001c565.539 0 1024 458.462 1024 1024 0 565.539-458.462 1024-1024 1024-565.539 0-1024-458.462-1024-1024 0-565.54 458.462-1024 1024-1024z" style="fill:none"/><path d="M1584 697.335v863.331c0 12.887-10.448 23.335-23.335 23.335H487.335c-12.887 0-23.335-10.448-23.335-23.335V697.335h1120z" style="fill:#bdbdbd"/><path style="fill:#7b838e" d="M1584 697.335v46.664H463.999v-46.664z"/><path d="M487.334 463.999h1073.33c12.887 0 23.335 10.448 23.335 23.335v210H464v-210C464 474.447 474.447 464 487.334 464z" style="fill:#415065;fill-rule:nonzero"/><path style="fill:#ef5350;fill-rule:nonzero" d="M1397.44 532.809v93.332h93.33v-93.332z"/><path style="fill:#ffab40;fill-rule:nonzero" d="M1070.55 626.141h93.34v-93.332h-93.34z"/><path style="fill:#7cb342;fill-rule:nonzero" d="M1233.76 532.809v93.332h93.33v-93.332z"/><path class="fil9" d="M767.333 1239.98h373.337v46.67H767.333z"/><path class="fil10" d="M1302.45 872.234h12.06c28.586 0 47.903 5.47 57.953 16.302 10.05 10.832 15.075 33.165 15.075 67.11v79.393c0 36.625 4.69 62.755 14.18 78.388 9.493 15.744 26.242 27.023 50.249 34.056-24.007 6.7-40.756 17.868-50.249 33.612-9.49 15.632-14.18 41.761-14.18 78.498v78.948c0 33.833-4.914 56.166-14.74 66.998-9.826 10.718-28.362 16.19-55.608 16.19-1.564 0-3.908-.112-7.259-.334-3.237-.224-5.695-.335-7.481-.335v34.728h15.41c42.879 0 72.024-7.93 87.097-23.673 15.186-15.746 22.78-48.127 22.78-96.814v-79.95c0-33.611 6.252-57.284 18.647-71.019 9.524-10.553 24.325-17.085 44.297-19.544v-35.615c-19.972-2.459-34.773-8.989-44.297-19.543-12.395-13.846-18.647-37.631-18.647-71.242v-79.504c0-48.574-7.594-81.068-22.892-97.147-15.298-16.191-44.217-24.231-86.985-24.231h-15.41v34.728z"/><path class="fil9" d="M767.333 1123.31H1304v46.67H767.333zM767.333 1006.65H1304v46.66H767.333z"/><path class="fil10" d="M745.553 872.234h-12.06c-28.586 0-47.903 5.47-57.953 16.302-10.05 10.832-15.075 33.165-15.075 67.11v79.393c0 36.625-4.69 62.755-14.18 78.388-9.493 15.744-26.242 27.023-50.249 34.056 24.007 6.7 40.756 17.868 50.249 33.612 9.49 15.632 14.18 41.761 14.18 78.498v78.948c0 33.833 4.914 56.166 14.74 66.998 9.826 10.718 28.362 16.19 55.608 16.19 1.564 0 3.908-.112 7.259-.334 3.237-.224 5.695-.335 7.481-.335v34.728h-15.41c-42.879 0-72.024-7.93-87.097-23.673-15.186-15.746-22.78-48.127-22.78-96.814v-79.95c0-33.611-6.252-57.284-18.647-71.019-9.524-10.553-24.325-17.085-44.297-19.544v-35.615c19.972-2.459 34.773-8.989 44.297-19.543 12.395-13.846 18.647-37.631 18.647-71.242v-79.504c0-48.574 7.594-81.068 22.892-97.147 15.298-16.191 44.217-24.231 86.985-24.231h15.41v34.728z"/></g></svg>
