<?xml version="1.0" encoding="UTF-8" standalone="no"?>
<svg
   xmlns:dc="http://purl.org/dc/elements/1.1/"
   xmlns:cc="http://creativecommons.org/ns#"
   xmlns:rdf="http://www.w3.org/1999/02/22-rdf-syntax-ns#"
   xmlns:svg="http://www.w3.org/2000/svg"
   xmlns="http://www.w3.org/2000/svg"
   xmlns:sodipodi="http://sodipodi.sourceforge.net/DTD/sodipodi-0.dtd"
   xmlns:inkscape="http://www.inkscape.org/namespaces/inkscape"
   inkscape:version="1.0 (4035a4f, 2020-05-01)"
   sodipodi:docname="nestjs.svg"
   id="svg26"
   preserveAspectRatio="xMidYMid"
   version="1.1"
   viewBox="0 0 256 255"
   height="255px"
   width="256px">
  <metadata
     id="metadata32">
    <rdf:RDF>
      <cc:Work
         rdf:about="">
        <dc:format>image/svg+xml</dc:format>
        <dc:type
           rdf:resource="http://purl.org/dc/dcmitype/StillImage" />
      </cc:Work>
    </rdf:RDF>
  </metadata>
  <defs
     id="defs30" />
  <sodipodi:namedview
     inkscape:current-layer="svg26"
     inkscape:window-maximized="1"
     inkscape:window-y="23"
     inkscape:window-x="0"
     inkscape:cy="162.70202"
     inkscape:cx="110.82828"
     inkscape:zoom="3.4941176"
     showgrid="false"
     id="namedview28"
     inkscape:window-height="1009"
     inkscape:window-width="2560"
     inkscape:pageshadow="2"
     inkscape:pageopacity="0"
     guidetolerance="10"
     gridtolerance="10"
     objecttolerance="10"
     borderopacity="1"
     bordercolor="#666666"
     pagecolor="#ffffff" />
  <g
     transform="matrix(0.96534354,0,0,0.96534354,3.7205387,5.1515152)"
     id="g24">
    <path
       id="path22"
       fill="#e0234e"
       d="m 150.73574,0 c -1.85114,0 -3.57005,0.39668612 -5.15676,0.92557229 3.37171,2.24781531 5.22286,5.22289321 6.14846,8.59461621 0.0663,0.4627795 0.19834,0.7933575 0.26453,1.2561215 0.0663,0.396687 0.13215,0.793359 0.13215,1.190042 0.26457,5.817876 -1.52062,6.545111 -2.77673,9.982957 -1.91727,4.429548 -1.38839,9.189634 0.92556,13.024163 0.19835,0.462767 0.46279,0.991667 0.79337,1.454459 -2.5123,-16.726439 11.43745,-19.238711 14.0158,-24.461579 0.19834,-4.5617645 -3.57005,-7.6029357 -6.5451,-9.7185346 C 155.69419,0.5289005 153.11577,0 150.73574,0 Z m 21.02374,3.7684081 c -0.26455,1.5205815 -0.0662,1.1239077 -0.13211,1.9172646 -0.0662,0.5288872 -0.0662,1.1900276 -0.13213,1.7189148 -0.13212,0.5289015 -0.26457,1.0577887 -0.46281,1.5867138 -0.13211,0.5288872 -0.33055,1.0577877 -0.52888,1.5866737 -0.26457,0.528926 -0.46279,0.991694 -0.72724,1.520593 -0.19833,0.264559 -0.33055,0.528887 -0.52889,0.793357 -0.13212,0.198335 -0.26455,0.396672 -0.39667,0.595007 -0.33055,0.462805 -0.66114,0.925572 -0.99168,1.322243 -0.3967,0.396686 -0.72725,0.859452 -1.19006,1.190042 0,0.06619 0,0.06619 0,0.06619 -0.39667,0.330564 -0.79334,0.727236 -1.25611,1.057787 -1.38837,1.057787 -2.97505,1.851143 -4.42954,2.842835 -0.46276,0.330552 -0.92558,0.595023 -1.32224,0.991692 -0.46278,0.330552 -0.85946,0.661104 -1.25612,1.057788 -0.46281,0.396672 -0.79337,0.793356 -1.19005,1.256148 -0.33056,0.396685 -0.72722,0.859454 -0.99166,1.322258 -0.33059,0.462766 -0.66113,0.92556 -0.9256,1.388339 -0.26455,0.528886 -0.46278,0.991691 -0.72723,1.520579 -0.19833,0.528886 -0.39669,0.991693 -0.5289,1.520579 -0.19834,0.595021 -0.33056,1.123922 -0.46279,1.652834 -0.0662,0.264557 -0.0662,0.594995 -0.13212,0.859452 -0.0663,0.264557 -0.0663,0.528887 -0.13211,0.793356 0,0.528887 -0.0662,1.123908 -0.0662,1.652795 0,0.396684 0,0.793355 0.0662,1.19004 0,0.528889 0.0662,1.057777 0.19833,1.652796 0.0662,0.528886 0.19831,1.057787 0.33058,1.586713 0.19834,0.528886 0.33056,1.057787 0.52888,1.586674 0.13215,0.330591 0.33056,0.661141 0.46281,0.925572 l -15.20586,-5.884 c -2.5784,-0.727236 -5.09065,-1.388338 -7.66905,-1.98336 -1.38835,-0.330551 -2.7767,-0.661126 -4.16507,-0.991691 -3.96675,-0.793344 -7.99958,-1.38834 -12.03245,-1.78501 -0.13211,0 -0.19833,-0.06621 -0.33055,-0.06621 -3.96677,-0.396671 -7.86737,-0.595007 -11.83411,-0.595007 -2.90897,0 -5.817932,0.132114 -8.660764,0.330551 -4.032859,0.264558 -8.065724,0.793356 -12.098556,1.454459 -0.991694,0.132127 -1.983387,0.33059 -2.975082,0.528927 -2.049476,0.396645 -4.032832,0.85945 -5.950094,1.322242 -0.991693,0.264558 -1.983387,0.528901 -2.97508,0.793332 -0.991662,0.39667 -1.917231,0.859477 -2.842833,1.256148 -0.727232,0.330552 -1.45446,0.661115 -2.181693,0.991692 -0.132123,0.06621 -0.264554,0.06621 -0.330554,0.132128 -0.661139,0.330551 -1.256154,0.594981 -1.85114,0.92557 -0.198339,0.0662 -0.330586,0.132115 -0.462801,0.198337 -0.72723,0.330553 -1.454459,0.727224 -2.049478,1.057787 -0.462799,0.198336 -0.925569,0.462793 -1.322245,0.661141 -0.19834,0.132115 -0.462803,0.264546 -0.595017,0.330552 -0.595014,0.330552 -1.190031,0.661102 -1.718924,0.991693 -0.595016,0.33055 -1.12391,0.661102 -1.58671,0.991654 -0.462767,0.33059 -0.925566,0.59502 -1.322246,0.925571 -0.06623,0.06621 -0.132122,0.06621 -0.198339,0.132129 -0.396676,0.264556 -0.859446,0.595006 -1.256121,0.925596 0,0 -0.06623,0.06619 -0.132124,0.132125 -0.330554,0.264558 -0.66114,0.528889 -0.991693,0.79332 -0.132121,0.0662 -0.264555,0.198335 -0.396677,0.264557 -0.330554,0.264559 -0.661108,0.595021 -0.991663,0.859477 -0.06623,0.132126 -0.198337,0.198336 -0.264554,0.264558 -0.396677,0.396672 -0.793355,0.727223 -1.190032,1.123908 -0.06623,0 -0.06623,0.0662 -0.132122,0.132114 -0.396677,0.330564 -0.793353,0.727237 -1.19003,1.123921 -0.06622,0.0662 -0.06622,0.132113 -0.132123,0.132113 -0.330554,0.330553 -0.661108,0.661142 -0.991693,1.057787 -0.132121,0.132126 -0.330554,0.264559 -0.462769,0.396671 -0.330554,0.396686 -0.727232,0.793357 -1.123907,1.190042 -0.06623,0.132116 -0.198339,0.198337 -0.264556,0.330551 -0.528894,0.528926 -0.991694,1.057814 -1.520587,1.586713 -0.06622,0.0662 -0.132121,0.132111 -0.198337,0.198336 -1.057816,1.123907 -2.181726,2.247815 -3.371727,3.2395 -1.19003,1.057785 -2.446156,2.049477 -3.702309,2.908933 -1.322248,0.9256 -2.578371,1.718923 -3.966741,2.512277 -1.322249,0.72721 -2.710618,1.388359 -4.165079,1.983385 -1.388371,0.595005 -2.842832,1.123917 -4.297297,1.586677 -2.776739,0.595005 -5.619573,1.718923 -8.065728,1.917261 -0.528892,0 -1.123908,0.132134 -1.652801,0.198328 -0.595014,0.132124 -1.123907,0.264564 -1.652799,0.396698 -0.528894,0.198318 -1.057817,0.396666 -1.586711,0.594994 -0.528893,0.198339 -1.0577858,0.4628 -1.5866792,0.727252 -0.4627999,0.330543 -0.9916912,0.595005 -1.4544932,0.925559 -0.4627713,0.330554 -0.9255713,0.72722 -1.3222492,1.123907 -0.4627683,0.330585 -0.9255682,0.793364 -1.3222461,1.190021 -0.396678,0.46282 -0.7933539,0.859487 -1.1239081,1.322246 -0.330554,0.528892 -0.7272316,0.991702 -0.9916939,1.520605 -0.3305539,0.4628 -0.6611076,0.991682 -0.92557,1.520554 -0.2645551,0.595046 -0.5288921,1.123928 -0.7272315,1.718954 -0.1983383,0.528892 -0.39667675,1.123897 -0.59501521,1.718923 -0.13212148,0.528882 -0.26455491,1.057784 -0.33055365,1.586656 0,0.0663 -0.0662141,0.132144 -0.0662141,0.198349 -0.13212251,0.595046 -0.13212251,1.38841 -0.19833928,1.785097 C 0.06590646,84.293023 0,84.68968 0,85.15249 c 0,0.264554 0,0.594985 0.0662141,0.859436 0.06621411,0.46281 0.13212036,0.859477 0.26455502,1.256184 0.13212148,0.396616 0.26455512,0.793303 0.46276936,1.18999 0,0.06619 0,0.06619 0,0.06619 0.19833836,0.396707 0.46280062,0.793364 0.72723162,1.190041 0.264555,0.396677 0.5289234,0.793354 0.8594772,1.190041 0.3305538,0.330554 0.7272317,0.7272 1.1239081,1.057774 0.3966779,0.396677 0.793356,0.727231 1.2561242,1.057785 1.5867087,1.388379 1.9833856,1.851179 4.0328676,2.908953 0.3305508,0.198349 0.6611384,0.330575 1.0578153,0.528913 0.066225,0 0.1321223,0.06619 0.1983375,0.06619 0,0.132113 0,0.198349 0.06622,0.330595 0.06621,0.528902 0.198338,1.057774 0.330554,1.586687 0.132121,0.595015 0.330586,1.123928 0.528924,1.586701 0.198339,0.39668 0.330554,0.79334 0.528894,1.19004 0.06621,0.13213 0.132123,0.26455 0.198338,0.33055 0.264555,0.52888 0.528892,0.99171 0.793323,1.45446 0.330586,0.46278 0.661139,0.92556 0.991691,1.38838 0.330556,0.39666 0.727234,0.85945 1.12391,1.25612 0.396678,0.39668 0.793356,0.72725 1.256157,1.12389 0,0 0.06622,0.0663 0.13212,0.0663 0.396679,0.33058 0.793354,0.66115 1.190033,0.92556 0.462769,0.33057 0.925569,0.595 1.45446,0.85947 0.462801,0.26456 0.991695,0.5289 1.520587,0.72725 0.396678,0.19833 0.859446,0.33057 1.322248,0.46279 0.06623,0.0663 0.132121,0.0663 0.264556,0.13214 0.264554,0.0663 0.594982,0.1321 0.859445,0.19832 -0.198337,3.57006 -0.264556,6.94178 0.264557,8.13183 0.594984,1.32224 3.503939,-2.71061 6.412896,-7.33847 -0.396676,4.56176 -0.66114,9.91682 0,11.50356 0.72723,1.65277 4.693971,-3.50399 8.131818,-9.18965 46.873663,-10.84239 89.648439,21.55265 94.144039,67.30241 -0.85946,-7.14014 -9.65239,-11.10687 -13.68523,-10.11517 -1.98339,4.8923 -5.35511,11.17296 -10.77631,15.0736 0.46278,-4.36343 0.26453,-8.85905 -0.66112,-13.22248 -1.45449,6.08235 -4.29733,11.76804 -8.197985,16.66033 -6.280674,0.46277 -12.561363,-2.57841 -15.866995,-7.14013 -0.264555,-0.19836 -0.330555,-0.59502 -0.528893,-0.85947 -0.198341,-0.46283 -0.396676,-0.92556 -0.528893,-1.38837 -0.198338,-0.46277 -0.330553,-0.92557 -0.396676,-1.38834 -0.06623,-0.46281 -0.06623,-0.92559 -0.06623,-1.45447 0,-0.33059 0,-0.66113 0,-0.99168 0.06623,-0.46283 0.198339,-0.92561 0.330555,-1.3884 0.132121,-0.46277 0.264554,-0.92556 0.4628,-1.38836 0.264556,-0.46275 0.46277,-0.92555 0.793355,-1.38832 1.123908,-3.17344 1.123908,-5.7518 -0.925569,-7.27237 -0.396678,-0.26456 -0.793355,-0.46281 -1.256155,-0.66115 -0.264558,-0.0662 -0.595017,-0.19834 -0.859446,-0.26454 -0.19834,-0.0662 -0.330554,-0.13215 -0.528894,-0.19835 -0.4628,-0.13213 -0.925601,-0.26457 -1.388371,-0.33056 -0.4628,-0.13211 -0.925569,-0.19834 -1.388369,-0.19834 -0.46277,-0.0663 -0.991695,-0.13212 -1.454464,-0.13212 -0.330552,0 -0.661138,0.0662 -0.991693,0.0662 -0.528891,0 -0.991691,0.0663 -1.454462,0.19833 -0.4628,0.0663 -0.925569,0.13212 -1.388369,0.26454 -0.462771,0.13213 -0.925572,0.26456 -1.388372,0.46283 -0.462768,0.19833 -0.859447,0.39666 -1.322245,0.595 -0.396646,0.19835 -0.793325,0.46277 -1.256124,0.66111 -15.404195,10.04908 -6.214559,33.58509 4.297296,40.39467 -3.966743,0.72723 -7.999576,1.58672 -9.123486,2.44615 -0.06623,0.0662 -0.132121,0.13213 -0.132121,0.13213 2.842833,1.71891 5.817883,3.17339 8.925145,4.42951 4.231205,1.38837 8.726836,2.6445 10.710222,3.17342 0,0 0,0.0662 0,0.0662 5.487327,1.12392 11.040779,1.5206 16.660327,1.19004 29.287802,-2.04948 53.286602,-24.32938 57.650032,-53.68327 0.13212,0.59503 0.26455,1.1239 0.39667,1.71894 0.19835,1.18998 0.46277,2.44613 0.59499,3.70226 0,0 0,0 0,0.0663 0.13212,0.59501 0.19834,1.19002 0.26455,1.71891 0,0.13212 0,0.19834 0,0.26457 0.0663,0.595 0.13213,1.19003 0.13213,1.71891 0.0662,0.72724 0.13213,1.45446 0.13213,2.18173 0,0.33056 0,0.66112 0,1.05779 0,0.33058 0.0662,0.72722 0.0662,1.0578 0,0.39669 -0.0662,0.79333 -0.0662,1.19001 0,0.3306 0,0.66114 0,0.92557 0,0.46281 -0.0663,0.85947 -0.0663,1.32226 0,0.26453 0,0.5289 -0.0662,0.85946 0,0.46281 -0.0662,0.92556 -0.0662,1.45446 -0.0663,0.19834 -0.0663,0.39668 -0.0663,0.59503 -0.0662,0.5289 -0.13213,0.99169 -0.19835,1.5206 0,0.19834 0,0.39666 -0.0662,0.59502 -0.0663,0.6611 -0.19833,1.25613 -0.26452,1.91723 0,0 0,0.0663 0,0.0663 v 0.0662 c -0.13213,0.59501 -0.26458,1.25613 -0.39671,1.85113 0,0.0662 0,0.13213 0,0.19835 -0.1321,0.595 -0.26455,1.19003 -0.39666,1.78502 0,0.0663 -0.0662,0.19834 -0.0662,0.26453 -0.13214,0.59503 -0.26457,1.19004 -0.46277,1.78509 0,0.0662 0,0.1321 0,0.19831 -0.19834,0.6611 -0.39669,1.25613 -0.52892,1.85114 -0.0662,0.0662 -0.0662,0.13213 -0.0662,0.13213 -0.19835,0.66113 -0.39666,1.32224 -0.59498,1.98336 -0.26456,0.66114 -0.46279,1.25614 -0.72723,1.91727 -0.26455,0.66113 -0.46281,1.32226 -0.72725,1.91725 -0.26457,0.66115 -0.52892,1.25617 -0.79335,1.91726 0,0 -0.0663,0 -0.0663,0 -0.26458,0.59501 -0.52894,1.25616 -0.85951,1.85118 0,0 0,0 0,0 0,0 0,0 0,0 -0.0662,0.19831 -0.13211,0.33056 -0.19832,0.46275 -0.0662,0.0663 -0.0662,0.13213 -0.13212,0.19836 -4.2973,8.6607 -10.64412,16.26362 -18.57757,22.21375 -0.52889,0.33056 -1.05781,0.72725 -1.58669,1.1239 0,0 0,0 0,0 -0.13213,0.13214 -0.33058,0.19836 -0.4628,0.33056 -0.4628,0.33056 -0.92558,0.6611 -1.45445,0.9917 l 0.19833,0.39668 h 0.0662 c 0.92556,-0.13212 1.85114,-0.26456 2.77672,-0.39668 h 0.0662 c 1.71894,-0.26456 3.43786,-0.59502 5.15679,-0.92557 0.46276,-0.0663 0.9917,-0.19833 1.45446,-0.33059 0.33055,-0.0663 0.59501,-0.13211 0.92556,-0.19833 0.4628,-0.0663 0.92558,-0.19834 1.38839,-0.26455 0.39666,-0.13212 0.79335,-0.19836 1.19001,-0.33056 6.61124,-1.58672 13.02416,-3.76844 19.17257,-6.3468 -10.51184,14.34637 -24.5938,25.91605 -41.05577,33.51897 7.60294,-0.5289 15.20585,-1.78502 22.54432,-3.90061 26.6433,-7.86742 49.05539,-25.78385 62.4762,-49.91487 -2.71061,15.27198 -8.79295,29.81669 -17.78422,42.51028 6.41289,-4.23123 12.29689,-9.12354 17.652,-14.67697 14.80917,-15.47029 24.52771,-35.10564 27.8333,-56.19554 2.24784,10.44577 2.90897,21.22212 1.91727,31.8662 47.73315,-66.57518 3.96674,-135.596514 -14.34637,-153.777417 -0.0663,-0.132116 -0.13213,-0.198336 -0.13213,-0.330553 -0.0663,0.0662 -0.0663,0.0662 -0.0663,0.132128 0,-0.06621 0,-0.06621 -0.0662,-0.132128 0,0.793356 -0.0662,1.586675 -0.13212,2.380032 -0.19835,1.520585 -0.39667,2.975056 -0.66114,4.429548 -0.33055,1.454461 -0.72723,2.908902 -1.12392,4.363405 -0.46277,1.388338 -0.99164,2.84281 -1.58668,4.231189 -0.59501,1.322226 -1.25614,2.710595 -1.98337,4.032862 -0.72724,1.256143 -1.52059,2.578379 -2.38003,3.76839 -0.85947,1.256164 -1.78505,2.446164 -2.71064,3.570051 -0.9917,1.190051 -2.04946,2.247856 -3.10728,3.305651 -0.66111,0.595015 -1.25611,1.123908 -1.91727,1.65278 -0.52888,0.46281 -0.99166,0.859497 -1.52058,1.322246 -1.19001,0.925579 -2.38004,1.785046 -3.70227,2.57841 -1.25615,0.793333 -2.57836,1.586687 -3.90062,2.247825 -1.38837,0.661118 -2.77674,1.256123 -4.16508,1.851149 -1.38837,0.528872 -2.84284,0.991672 -4.29735,1.388359 -1.45445,0.396656 -2.97502,0.727231 -4.42951,0.991672 -1.52056,0.264553 -3.04115,0.396666 -4.49563,0.528913 -1.0578,0.06619 -2.11559,0.132133 -3.1734,0.132133 -1.5206,0 -3.04115,-0.132133 -4.49563,-0.264553 -1.52058,-0.132124 -3.04118,-0.330606 -4.49564,-0.661159 -1.52059,-0.264554 -2.97508,-0.661139 -4.42955,-1.123888 h -0.0662 c 1.45448,-0.132123 2.90896,-0.264574 4.36345,-0.528912 1.52055,-0.264554 2.97503,-0.594995 4.42952,-0.991703 1.45446,-0.396667 2.90893,-0.859467 4.29729,-1.388349 1.45446,-0.528902 2.84284,-1.19 4.1651,-1.851158 1.38835,-0.661139 2.64449,-1.388349 3.96673,-2.181703 1.25612,-0.859456 2.51226,-1.718902 3.70228,-2.644502 1.19003,-0.925559 2.31392,-1.917231 3.37176,-2.975036 1.1239,-0.991713 2.11558,-2.115611 3.10727,-3.239528 0.99166,-1.18999 1.91725,-2.380021 2.77672,-3.570052 0.13213,-0.198348 0.26456,-0.462769 0.39669,-0.661118 0.6611,-1.057805 1.32221,-2.1156 1.91721,-3.173415 0.72725,-1.322246 1.38839,-2.644502 1.98339,-4.032831 0.59502,-1.388369 1.12393,-2.776748 1.58672,-4.2312 0.46277,-1.388379 0.79333,-2.84283 1.1239,-4.29729 0.26457,-1.520592 0.52889,-2.975087 0.66112,-4.429546 0.13212,-1.520579 0.26454,-3.041172 0.26454,-4.49563 0,-1.057813 -0.0663,-2.1156 -0.1321,-3.173388 -0.13213,-1.52058 -0.33057,-2.975076 -0.5289,-4.429537 -0.26456,-1.520592 -0.59501,-2.975049 -0.9917,-4.429547 -0.46276,-1.38834 -0.92557,-2.842825 -1.45445,-4.231162 -0.52894,-1.388378 -1.19002,-2.776741 -1.85118,-4.098998 -0.72723,-1.322244 -1.45446,-2.644488 -2.2478,-3.900611 -0.85946,-1.256124 -1.71894,-2.446151 -2.64451,-3.636192 -0.99166,-1.123909 -1.98336,-2.247816 -3.04118,-3.371723 -0.52888,-0.528889 -1.12391,-1.12391 -1.71891,-1.652796 -2.97505,-2.313949 -6.08234,-4.4956706 -9.1896,-6.4790276 C 178.8997,6.942083 178.50302,6.7438387 178.04022,6.54549 175.8585,5.1571495 173.80902,4.429889 171.75955,3.7687854 Z" />
  </g>
</svg>
